<svg><defs><font horiz-adv-x="247"><font-face x-height="523" ascent="750" bbox="-51 -291 1163 1013" cap-height="700" descent="-250" panose-1="2 0 6 3 0 0 0 2 0 4" underline-position="-50" underline-thickness="50" unicode-range="U+0020-F6C3"/><glyph d="M122-13q-36 0-60.5 24.5t-24.5 59.5q0 36 24.5 61t60.5 25 60.5-25 24.5-61q0-35-24.5-59.5t-60.5-24.5zM384-13q-36 0-60.5 24.5t-24.5 59.5q0 36 24.5 61t60.5 25 60.5-25 24.5-61q0-35-24.5-59.5t-60.5-24.5zM647-13q-36 0-60.5 24.5t-24.5 59.5q0 36 24.5 61t60.5 25 60.5-25 24.5-61q0-35-24.5-59.5t-60.5-24.5z" glyph-name="ellipsis" horiz-adv-x="769" unicode="..."/><glyph d="M4 0v700h500v-700h-500zM254 395l170 255h-340zM284 350l170-255v510zM54 95l170 255-170 255v-510zM84 50h340l-170 255z" glyph-name=".notdef" horiz-adv-x="508"/><glyph glyph-name=".null" horiz-adv-x="0"/><glyph glyph-name="nonmarkingreturn" horiz-adv-x="333"/><glyph glyph-name="space" horiz-adv-x="248"/><glyph d="M84 199l-11 501h146l-11-501h-124zM146-13q-36 0-60.5 24.5t-24.5 59.5q0 36 24.5 61t60.5 25 60.5-25 24.5-61q0-35-24.5-59.5t-60.5-24.5z" glyph-name="exclam" horiz-adv-x="292" unicode="!"/><glyph d="M47 462l-5 238h112l-5-238h-102zM220 462l-5 238h112l-6-238h-101z" glyph-name="quotedbl" horiz-adv-x="370" unicode="&quot;"/><glyph d="M86 0l37 178h-97l21 104h98l27 134h-97l21 105h98l38 179h115l-37-179h111l37 179h116l-37-179h96l-21-105h-97l-27-134h96l-21-104h-97l-37-178h-116l37 178h-111l-37-178h-116zM261 282h111l27 134h-111z" glyph-name="numbersign" horiz-adv-x="659" unicode="#"/><glyph d="M222-85v74q-84 9-132.5 57t-67.5 103l119 58q37-89 121-89 39 0 61 19t22 53q0 32-31 57t-75.5 45-89 45-75.5 70-31 107q0 79 48 132t131 64v56h86v-57q72-13 113.5-57.5t57.5-91.5l-117-53q-35 76-102 76-35 0-55.5-19t-20.5-48q0-31 31.5-55.5t76-44 89-44 76-68.5 31.5-104q0-81-48-137.5t-132-70.5v-77h-86z" glyph-name="dollar" horiz-adv-x="521" unicode="$"/><glyph d="M70 0l530 700h134l-530-700h-134zM368 546q0-70-48.5-118.5t-121.5-48.5-121.5 48.5-48.5 118.5 48.5 118.5 121.5 48.5 121.5-48.5 48.5-118.5zM133 546q0-28 18-47.5t47-19.5 47 19.5 18 47.5-18 47.5-47 19.5-47-19.5-18-47.5zM775 152q0-70-48.5-118.5t-121.5-48.5-121.5 48.5-48.5 118.5 48.5 118.5 121.5 48.5 121.5-48.5 48.5-118.5zM540 152q0-28 18-47.5t47-19.5 47 19.5 18 47.5-18 47.5-47 19.5-47-19.5-18-47.5z" glyph-name="percent" horiz-adv-x="804" unicode="%"/><glyph d="M544-20l-68 72q-76-65-190-65-120 0-189.5 59.5t-69.5 154.5q0 118 117 196-58 68-58 135 0 78 55.5 129.5t148.5 51.5q97 0 152.5-51t55.5-133q0-110-129-188l104-100q18 37 18 94h129q0-113-53-194l70-73zM288 111q61 0 98 37l-160 159q-60-29-60-95 0-47 36-74t86-27zM213 525q0-51 75-111 86 51 86 111 0 34-22 55.5t-60 21.5q-34 0-56.5-22t-22.5-55z" glyph-name="ampersand" horiz-adv-x="655" unicode="&amp;"/><glyph d="M48 462l-5 238h112l-5-238h-102z" glyph-name="quotesingle" horiz-adv-x="199" unicode="'"/><glyph d="M182 596v-558q0-85 86-85v-119q-223 0-223 211v543q0 212 223 212v-119q-86 0-86-85z" glyph-name="parenleft" horiz-adv-x="332" unicode="("/><glyph d="M150 38v558q0 85-86 85v119q223 0 223-212v-543q0-211-223-211v119q86 0 86 85z" glyph-name="parenright" horiz-adv-x="333" unicode=")"/><glyph d="M36 569l47 79 86-49v101h94v-101l87 49 46-79-87-49 88-48-47-80-87 50v-101h-94v101l-86-50-47 79 87 49z" glyph-name="asterisk" horiz-adv-x="434" unicode="*"/><glyph d="M36 256v111h181v192h116v-192h181v-111h-181v-193h-116v193h-181z" glyph-name="plus" horiz-adv-x="550" unicode="+"/><glyph d="M44-93q19 13 39 36t23 45q-32 7-50.5 30.5t-18.5 52.5q0 35 24.5 60.5t59.5 25.5q38 0 63-24.5t25-67.5q0-65-31.5-123.5t-79.5-94.5z" glyph-name="comma" horiz-adv-x="244" unicode=","/><glyph d="M45 242v124h278v-124h-278z" glyph-name="hyphen" horiz-adv-x="369" unicode="-"/><glyph d="M122-13q-36 0-60.5 24.5t-24.5 59.5q0 36 24.5 61t60.5 25 60.5-25 24.5-61q0-35-24.5-59.5t-60.5-24.5z" glyph-name="period" horiz-adv-x="245" unicode="."/><glyph d="M15-108l301 858h121l-301-858h-121z" glyph-name="slash" horiz-adv-x="452" unicode="/"/><glyph d="M529 350q0-184-56.5-273.5t-185.5-89.5q-128 0-184.5 89.5t-56.5 273.5 56.5 273.5 184.5 89.5q129 0 185.5-89.5t56.5-273.5zM189 350q0-123 19-177t79-54 79.5 54 19.5 177-19.5 177-79.5 54q-31 0-51-14.5t-30-46.5-13.5-70.5-3.5-99.5z" glyph-name="zero" horiz-adv-x="576" unicode="0"/><glyph d="M57 536l-35 117 132 47h115v-700h-139v561z" glyph-name="one" horiz-adv-x="341" unicode="1"/><glyph d="M42 0v50q0 55 32 109.5t77 98 90.5 83 77.5 80.5 32 76q0 39-24 62.5t-66 23.5q-75 0-99-82l-123 36q7 30 22 58t40.5 56 68.5 45 97 17q102 0 165-57.5t63-152.5q0-52-27-101t-67-85.5-80.5-69-72.5-65-39-59.5h294v-123h-461z" glyph-name="two" horiz-adv-x="541" unicode="2"/><glyph d="M267-13q-54 0-97 16t-69.5 42.5-42.5 54.5-23 59l121 38q26-81 108-81 44 0 71 26.5t27 69.5-30 69-85 26h-77v109l145 160h-253v124h414v-124l-147-154q71-7 123.5-61.5t52.5-142.5q0-101-67.5-166t-170.5-65z" glyph-name="three" horiz-adv-x="541" unicode="3"/><glyph d="M27 163v101l287 436h164v-417h82v-120h-82v-163h-139v163h-312zM172 283h167v260z" glyph-name="four" horiz-adv-x="588" unicode="4"/><glyph d="M258 338q-47 0-83-38l-117 20 15 380h395v-124h-270l-6-143q44 24 100 24 91 0 155-62t64-157q0-110-67-180.5t-171-70.5q-53 0-97 16t-71.5 42.5-44.5 55-25 58.5l122 38q10-37 38-59t71-22q45 0 74 31.5t29 79.5q0 45-28.5 78t-82.5 33z" glyph-name="five" horiz-adv-x="541" unicode="5"/><glyph d="M287 119q46 0 70.5 29t24.5 82q0 49-25.5 79.5t-72.5 30.5q-59 0-101-55 0-38 3-63.5t13-51 32-38.5 56-13zM326 713q90 0 164-46l-55-114q-43 28-100 28-41 0-71-15.5t-44.5-42-21.5-51-8-51.5q52 45 125 45 93 0 149.5-61.5t56.5-170.5q0-111-64.5-179t-170.5-68q-135 0-190.5 83.5t-55.5 234.5q0 86 14 156t45.5 128.5 89 91 137.5 32.5z" glyph-name="six" horiz-adv-x="562" unicode="6"/><glyph d="M25 700h462v-107l-229-593h-152l232 576h-313v124z" glyph-name="seven" horiz-adv-x="510" unicode="7"/><glyph d="M281-13q-112 0-178.5 59.5t-66.5 159.5q0 59 28.5 102t67.5 64q-31 20-54 57t-23 85q0 87 62.5 143t164.5 56 164.5-55.5 62.5-143.5q0-49-23.5-85.5t-54.5-56.5q40-22 68.5-64.5t28.5-101.5q0-99-68-159t-179-60zM282 302q-46 0-74-26t-28-68q0-41 27-67t75-26q49 0 75.5 26t26.5 67q0 42-28 68t-74 26zM282 586q-41 0-64-22.5t-23-57.5q0-36 24-58.5t63-22.5q38 0 62.5 22.5t24.5 58.5q0 34-23 57t-64 23z" glyph-name="eight" horiz-adv-x="564" unicode="8"/><glyph d="M274 581q-46 0-70.5-29t-24.5-82q0-49 25.5-79.5t72.5-30.5q59 0 101 55 0 38-3 63.5t-13 51-32 38.5-56 13zM235-13q-90 0-164 46l55 114q43-28 100-28 41 0 71 15.5t44.5 42 21.5 51 8 51.5q-53-45-125-45-93 0-149.5 61.5t-56.5 170.5q0 111 64.5 179t170.5 68q135 0 190.5-83.5t55.5-234.5q0-86-14-156t-45.5-128.5-89-91-137.5-32.5z" glyph-name="nine" horiz-adv-x="562" unicode="9"/><glyph d="M122-13q-36 0-60.5 24.5t-24.5 59.5q0 36 24.5 61t60.5 25 60.5-25 24.5-61q0-35-24.5-59.5t-60.5-24.5zM122 342q-36 0-60.5 24.5t-24.5 59.5q0 36 24.5 61t60.5 25 60.5-25 24.5-61q0-35-24.5-59.5t-60.5-24.5z" glyph-name="colon" horiz-adv-x="244" unicode=":"/><glyph d="M122 342q-36 0-60.5 24.5t-24.5 59.5q0 36 24.5 61t60.5 25 60.5-25 24.5-61q0-35-24.5-59.5t-60.5-24.5zM44-93q19 13 39 36t23 45q-32 7-50.5 30.5t-18.5 52.5q0 35 24.5 60.5t59.5 25.5q38 0 63-24.5t25-67.5q0-65-31.5-123.5t-79.5-94.5z" glyph-name="semicolon" horiz-adv-x="244" unicode=";"/><glyph d="M45 262v100l418 189v-120l-280-118 280-119v-121z" glyph-name="less" horiz-adv-x="508" unicode="&lt;"/><glyph d="M36 347v110h478v-110h-478zM36 157v111h478v-111h-478z" glyph-name="equal" horiz-adv-x="550" unicode="="/><glyph d="M463 362v-100l-418-189v121l280 119-280 118v120z" glyph-name="greater" horiz-adv-x="508" unicode="&gt;"/><glyph d="M152 199v49q0 37 16.5 69t40 54.5 47 43 40 45.5 16.5 51q0 31-23 53t-61 22q-63 0-89-62l-110 49q19 54 68 97t133 43q97 0 160-54.5t63-139.5q0-42-17-77t-41.5-59-49.5-45.5-42-46.5-17-51v-41h-134zM219-13q-36 0-60.5 24.5t-24.5 59.5q0 36 24.5 61t60.5 25 60.5-25 24.5-61q0-35-24.5-59.5t-60.5-24.5z" glyph-name="question" horiz-adv-x="482" unicode="?"/><glyph d="M568 130q-8-13-21.5-26.5t-43.5-27.5-66-14q-84 0-136 55t-52 142q0 85 52 141t132 56q65 0 105-40v34h103v-237q0-61 51-61 34 0 54.5 39t20.5 111q0 133-85 208.5t-224 75.5q-142 0-229.5-92t-87.5-230q0-143 89-230.5t236-87.5q104 0 189 50l46-74q-97-67-235-67-189 0-309.5 113.5t-120.5 292.5q0 181 121 298t303 117q179 0 293.5-105t114.5-264q0-114-50-179.5t-135-65.5q-84 0-115 68zM360 259q0-44 25.5-72.5t64.5-28.5 65 27.5 26 74.5q0 42-25.5 70.5t-65.5 28.5q-39 0-64.5-28t-25.5-72z" glyph-name="at" horiz-adv-x="905" unicode="@"/><glyph d="M449 180h-238l-61-180h-142l248 700h148l248-700h-142zM412 297l-82 252-81-252h163z" glyph-name="A" horiz-adv-x="660" unicode="A"/><glyph d="M67 0v700h222q105 0 167.5-50t62.5-135q0-48-23-89t-61-62q50-21 78.5-63t28.5-96q0-98-69-151.5t-171-53.5h-235zM208 417h80q37 0 62 23t25 59-24.5 57.5-64.5 21.5h-78v-161zM208 121h86q44 0 73 25t29 67-29 66-73 24h-86v-182z" glyph-name="B" horiz-adv-x="572" unicode="B"/><glyph d="M395-13q-162 0-263.5 103t-101.5 260q0 155 103.5 259t261.5 104q121 0 208-64l-40-124q-79 56-168 56-95 0-156.5-66t-61.5-165q0-101 61.5-166t156.5-65q92 0 174 57l40-123q-89-66-214-66z" glyph-name="C" horiz-adv-x="638" unicode="C"/><glyph d="M67 0v700h186q172 0 271.5-93t99.5-257q0-166-99-258t-272-92h-186zM208 122h50q102 0 160.5 58.5t58.5 169.5q0 109-59 168t-160 59h-50v-455z" glyph-name="D" horiz-adv-x="655" unicode="D"/><glyph d="M67 0v700h360v-127h-219v-156h188v-125h-188v-166h228v-126h-369z" glyph-name="E" horiz-adv-x="481" unicode="E"/><glyph d="M67 0v700h358v-127h-217v-165h190v-126h-190v-282h-141z" glyph-name="F" horiz-adv-x="470" unicode="F"/><glyph d="M393 713q98 0 169-36.5t107-79.5l-89-92q-70 77-181 77-101 0-161.5-66t-60.5-166q0-105 62.5-168t159.5-63q64 0 107 18.5t61 36.5v86h-133v119h265v-277q-65-56-135-85.5t-171-29.5q-153 0-258 100.5t-105 262.5q0 153 102.5 258t260.5 105z" glyph-name="G" horiz-adv-x="747" unicode="G"/><glyph d="M67 0v700h141v-284h291v284h141v-700h-141v289h-291v-289h-141z" glyph-name="H" horiz-adv-x="707" unicode="H"/><glyph d="M67 0v700h141v-700h-141z" glyph-name="I" horiz-adv-x="275" unicode="I"/><glyph d="M20 4l16 125q48-6 58-6 71 0 71 76v501h141v-526q0-92-53.5-136t-140.5-44q-45 0-92 10z" glyph-name="J" horiz-adv-x="374" unicode="J"/><glyph d="M67 0v700h141v-320l231 320h158l-252-335 260-365h-162l-235 340v-340h-141z" glyph-name="K" horiz-adv-x="615" unicode="K"/><glyph d="M67 0v700h141v-573h228v-127h-369z" glyph-name="L" horiz-adv-x="455" unicode="L"/><glyph d="M248 700l200-477 201 477h182v-700h-135v500l-182-441h-131l-182 441v-500h-135v700h182z" glyph-name="M" horiz-adv-x="897" unicode="M"/><glyph d="M507 0l-302 476v-476h-139v700h143l299-480v480h139v-700h-140z" glyph-name="N" horiz-adv-x="713" unicode="N"/><glyph d="M394-13q-160 0-262 103.5t-102 259.5q0 155 102.5 259t261.5 104 261.5-104 102.5-259q0-156-102-259.5t-262-103.5zM394 581q-94 0-155.5-66t-61.5-165q0-101 61.5-166t155.5-65 155.5 65 61.5 166q0 99-61.5 165t-155.5 66z" glyph-name="O" horiz-adv-x="788" unicode="O"/><glyph d="M67 0v700h223q103 0 166.5-59.5t63.5-158.5q0-97-65-159t-164-62h-83v-261h-141zM208 383h63q46 0 75 27.5t29 71.5q0 43-28.5 69.5t-73.5 26.5h-65v-195z" glyph-name="P" horiz-adv-x="542" unicode="P"/><glyph d="M394-13q-160 0-262 103.5t-102 259.5q0 155 102.5 259t261.5 104 261.5-104 102.5-259q0-116-64-210l68-61-86-95-72 66q-94-63-210-63zM394 581q-94 0-155.5-66t-61.5-165q0-101 61.5-166t155.5-65q58 0 105 26l-65 59 84 95 68-62q25 52 25 113 0 99-61.5 165t-155.5 66z" glyph-name="Q" horiz-adv-x="789" unicode="Q"/><glyph d="M67 0v700h211q111 0 174-59t63-149q0-62-28.5-110t-77.5-75l166-307h-156l-136 274h-75v-274h-141zM208 393h66q41 0 68.5 25t27.5 69q0 42-27.5 66.5t-75.5 24.5h-59v-185z" glyph-name="R" horiz-adv-x="585" unicode="R"/><glyph d="M263 713q50 0 90.5-16t65-42 38.5-49 22-46l-117-53q-35 76-102 76-35 0-55.5-19t-20.5-48q0-31 31.5-55.5t76-44 89-44 76-68.5 31.5-104q0-94-63-153.5t-171-59.5q-53 0-96 16.5t-69.5 43.5-42 51.5-24.5 50.5l119 58q37-89 121-89 39 0 61 19t22 53q0 32-31 57t-75.5 45-89 45-75.5 70-31 107q0 89 60 144t160 55z" glyph-name="S" horiz-adv-x="521" unicode="S"/><glyph d="M185 0v573h-164v127h468v-127h-163v-573h-141z" glyph-name="T" horiz-adv-x="511" unicode="T"/><glyph d="M346-13q-134 0-208 75t-74 201v437h141v-437q0-67 37-106t104-39 104 39 37 106v437h141v-437q0-126-74-201t-208-75z" glyph-name="U" horiz-adv-x="692" unicode="U"/><glyph d="M417 0h-153l-258 700h155l179-534 179 534h155z" glyph-name="V" horiz-adv-x="680" unicode="V"/><glyph d="M620 0l-132 483-132-483h-159l-188 700h154l121-524 139 524h130l139-524 122 524h153l-187-700h-160z" glyph-name="W" horiz-adv-x="977" unicode="W"/><glyph d="M7 0l227 356-220 344h167l136-235 137 235h166l-220-344 228-356h-157q-20 32-154 250l-153-250h-157z" glyph-name="X" horiz-adv-x="638" unicode="X"/><glyph d="M222 0v320l-215 380h159l126-251 126 251h159l-215-380v-320h-140z" glyph-name="Y" horiz-adv-x="584" unicode="Y"/><glyph d="M32 0v92l344 483h-334v125h522v-92l-346-483h349v-125h-535z" glyph-name="Z" horiz-adv-x="603" unicode="Z"/><glyph d="M45-166v966h223v-119h-86v-728h86v-119h-223z" glyph-name="bracketleft" horiz-adv-x="332" unicode="["/><glyph d="M136 750l301-858h-121l-301 858h121z" glyph-name="backslash" horiz-adv-x="452" unicode="\"/><glyph d="M287 800v-966h-223v119h86v728h-86v119h223z" glyph-name="bracketright" horiz-adv-x="334" unicode="]"/><glyph d="M39 318l183 382h113l183-382h-129l-111 248-111-248h-128z" glyph-name="asciicircum" horiz-adv-x="557" unicode="^"/><glyph d="M24-29h565v-108h-565v108z" glyph-name="underscore" horiz-adv-x="614" unicode="_"/><glyph d="M280 725l67-144h-115l-97 144h145z" glyph-name="grave" horiz-adv-x="483" unicode="`"/><glyph d="M24 162q0 77 56 125t147 48q71 0 113-29v34q0 35-25 56t-70 21q-67 0-139-37l-52 94q38 26 93.5 44t112.5 18q118 0 168-54.5t50-150.5v-331h-122l-9 34q-44-47-127-47t-139.5 47.5-56.5 127.5zM162 166q0-32 26-52t65-20q40 0 65 19.5t25 52.5q0 34-25 53.5t-66 19.5q-40 0-65-20.5t-25-52.5z" glyph-name="a" horiz-adv-x="526" unicode="a"/><glyph d="M54 0v723h138v-255q16 22 56 45t99 23q112 0 180-76.5t68-198.5q0-121-71.5-197.5t-184.5-76.5q-58 0-97.5 22.5t-57.5 44.5v-54h-130zM188 260q0-64 36.5-107.5t97.5-43.5q59 0 96.5 41t37.5 110q0 68-37 111t-97 43q-59 0-96.5-41t-37.5-113z" glyph-name="b" horiz-adv-x="620" unicode="b"/><glyph d="M312 109q61 0 118 47l37-113q-70-56-163-56-122 0-200.5 77t-78.5 196 79.5 197.5 198.5 78.5q92 0 165-56l-39-116q-55 50-122 50-65 0-104.5-44t-39.5-109q0-67 42-109.5t107-42.5z" glyph-name="c" horiz-adv-x="490" unicode="c"/><glyph d="M566 723v-723h-130v54q-10-13-26.5-26t-52.5-27-76-14q-113 0-184.5 76.5t-71.5 197.5q0 122 68 198.5t180 76.5q59 0 99-23t56-45v255h138zM432 260q0 72-37.5 113t-96.5 41q-60 0-97-43t-37-111q0-69 37.5-110t96.5-41q61 0 97.5 43.5t36.5 107.5z" glyph-name="d" horiz-adv-x="620" unicode="d"/><glyph d="M26 260q0 119 72.5 197.5t183.5 78.5q120 0 187-74.5t67-204.5q0-20-1-30h-368q2-53 40-86.5t96-33.5q83 0 127 64l91-69q-22-40-78-77.5t-142-37.5q-124 0-199.5 76.5t-75.5 196.5zM171 317h225q-2 48-33 77t-79 29-78-30-35-76z" glyph-name="e" horiz-adv-x="559" unicode="e"/><glyph d="M78 0v411h-56v112h56v19q0 95 54 138t139 43q25 0 45-2v-116l-10 1q-10 1-17 1-73 0-73-68v-16h91v-112h-91v-411h-138z" glyph-name="f" horiz-adv-x="326" unicode="f"/><glyph d="M92-144l42 106q68-36 149-36 144 0 144 104v24q-8-11-24-24.5t-52-28-77-14.5q-113 0-181.5 76t-68.5 198q0 121 71.5 198t183.5 77q58 0 98.5-22.5t57.5-45.5v55h130v-457q0-137-77-197.5t-204-60.5q-105 0-192 48zM431 262q0 67-37.5 109.5t-97.5 42.5q-59 0-96-42t-37-110 37.5-110.5 96.5-42.5q60 0 97 42t37 111z" glyph-name="g" horiz-adv-x="615" unicode="g"/><glyph d="M330 536q181 0 181-234v-302h-137v318q0 42-25.5 68t-61.5 26q-43 0-69-27.5t-26-70.5v-314h-138v723h138v-261q19 31 55 52.5t83 21.5z" glyph-name="h" horiz-adv-x="562" unicode="h"/><glyph d="M54 0v523h138v-523h-138zM42 649q0 34 23 56.5t57 22.5q35 0 58-22.5t23-56.5-23-56.5-58-22.5q-34 0-57 22.5t-23 56.5z" glyph-name="i" unicode="i"/><glyph d="M54-1v524h138v-530q0-184-200-184l-34 2v117q14-2 24-2 72 0 72 73zM42 649q0 34 23 56.5t57 22.5q35 0 58-22.5t23-56.5-23-56.5-58-22.5q-34 0-57 22.5t-23 56.5z" glyph-name="j" unicode="j"/><glyph d="M54 0v723h138v-420l168 220h155l-184-237 198-286h-162l-175 270v-270h-138z" glyph-name="k" horiz-adv-x="532" unicode="k"/><glyph d="M54 0v723h138v-723h-138z" glyph-name="l" unicode="l"/><glyph d="M801 345v-345h-138v313q0 46-22 72.5t-60 26.5-61.5-26.5-23.5-73.5v-312h-138v318q0 44-21.5 69t-59.5 25-61.5-26.5-23.5-72.5v-313h-138v523h135v-61q16 31 51.5 52.5t84.5 21.5q99 0 143-78 50 78 155 78 87 0 132.5-52t45.5-139z" glyph-name="m" horiz-adv-x="851" unicode="m"/><glyph d="M329 536q181 0 181-234v-302h-138v318q0 42-25.5 68t-61.5 26q-42 0-67.5-27.5t-25.5-70.5v-314h-138v523h135v-61q19 30 56 52t84 22z" glyph-name="n" horiz-adv-x="560" unicode="n"/><glyph d="M25 260q0 119 80.5 197.5t200.5 78.5 201-79 81-197q0-119-79.5-196t-202.5-77q-122 0-201.5 77t-79.5 196zM163 260q0-66 40.5-108.5t102.5-42.5q63 0 103.5 42.5t40.5 108.5q0 67-41 110.5t-103 43.5-102.5-43.5-40.5-110.5z" glyph-name="o" horiz-adv-x="613" unicode="o"/><glyph d="M54-187v710h130v-55q10 13 26.5 26.5t52.5 27.5 76 14q112 0 184-77t72-197q0-122-68-198.5t-180-76.5q-41 0-77 14t-52.5 27.5-25.5 25.5v-241h-138zM188 263q0-72 37.5-113t96.5-41q60 0 97 43t37 111q0 69-37.5 110t-96.5 41q-61 0-97.5-43.5t-36.5-107.5z" glyph-name="p" horiz-adv-x="621" unicode="p"/><glyph d="M566 523v-710h-138v241q-9-12-25.5-25.5t-52.5-27.5-77-14q-112 0-180 76.5t-68 198.5q0 120 72 197t184 77q58 0 97.5-22.5t57.5-45.5v55h130zM432 263q0 64-36.5 107.5t-97.5 43.5q-59 0-96.5-41t-37.5-110q0-68 37-111t97-43q59 0 96.5 41t37.5 113z" glyph-name="q" horiz-adv-x="621" unicode="q"/><glyph d="M333 536v-140q-141 0-141-168v-228h-138v523h135v-76q18 40 56 64.5t88 24.5z" glyph-name="r" horiz-adv-x="360" unicode="r"/><glyph d="M214-13q-71 0-120.5 28.5t-74.5 68.5l81 72q49-57 120-57 30 0 47 12.5t17 34.5q0 21-25.5 36.5t-62 28-72.5 30-61.5 53-25.5 87.5q0 71 54 113t136 42q122 0 179-93l-91-68q-40 50-94 50-24 0-39-11.5t-15-30.5q0-22 25.5-37t62-26.5 73-28 62-51.5 25.5-87q0-75-57-120.5t-144-45.5z" glyph-name="s" horiz-adv-x="435" unicode="s"/><glyph d="M67 523v110h136v-110h98v-112h-98v-202q0-56 17.5-75t59.5-19q14 0 25 1v-118q-21-5-59-5-93 0-136.5 52.5t-43.5 159.5v206h-55v112h56z" glyph-name="t" horiz-adv-x="333" unicode="t"/><glyph d="M231-13q-181 0-181 234v302h138v-318q0-42 25.5-68t61.5-26q42 0 67.5 27.5t25.5 70.5v314h138v-523h-135v61q-19-30-56-52t-84-22z" glyph-name="u" horiz-adv-x="556" unicode="u"/><glyph d="M351 0h-160l-187 523h147l120-376 120 376h147z" glyph-name="v" horiz-adv-x="542" unicode="v"/><glyph d="M510 0l-96 335-97-335h-154l-156 523h150l92-371 100 371h130l99-371 93 371h150l-157-523h-154z" glyph-name="w" horiz-adv-x="828" unicode="w"/><glyph d="M377 0l-111 164-112-164h-149l184 267-176 256h155l98-159 98 159h155l-176-256 184-267h-150z" glyph-name="x" horiz-adv-x="532" unicode="x"/><glyph d="M266-179h-132l73 192-201 510h148l117-341 118 341h144z" glyph-name="y" horiz-adv-x="540" unicode="y"/><glyph d="M435 437l-236-322h239v-115h-410v85l236 323h-229v115h400v-86z" glyph-name="z" horiz-adv-x="468" unicode="z"/><glyph d="M158 317q24-5 51.5-37.5t27.5-92.5v-149q0-85 87-85v-119q-223 0-223 212v108q0 99-73 99v129q73 0 73 99v107q0 212 223 212v-119q-87 0-87-85v-148q0-60-27-92.5t-52-38.5z" glyph-name="braceleft" horiz-adv-x="388" unicode="{"/><glyph d="M76-235v1059h130v-1059h-130z" glyph-name="bar" horiz-adv-x="282" unicode="|"/><glyph d="M230 317q-25 6-52 38.5t-27 92.5v148q0 85-87 85v119q223 0 223-212v-107q0-99 73-99v-129q-73 0-73-99v-108q0-212-223-212v119q87 0 87 85v149q0 60 27.5 92.5t51.5 37.5z" glyph-name="braceright" horiz-adv-x="388" unicode="}"/><glyph d="M364 217q-40 0-94 25.5t-80 25.5q-23 0-35.5-14.5t-12.5-37.5h-107q0 79 40 128t107 49q38 0 94-25.5t78-25.5q23 0 35.5 14t13.5 37h107q0-75-39.5-125.5t-106.5-50.5z" glyph-name="asciitilde" horiz-adv-x="546" unicode="~"/><glyph d="M73-153l11 501h124l11-501h-146zM146 560q36 0 60.5-24.5t24.5-59.5q0-36-24.5-61t-60.5-25-60.5 25-24.5 61q0 35 24.5 59.5t60.5 24.5z" glyph-name="exclamdown" horiz-adv-x="292" unicode="¡"/><glyph d="M263 0v65q-106 14-172 88t-66 183q0 108 66.5 183.5t171.5 89.5v91h87v-92q62-11 118-52l-39-116q-55 50-122 50-65 0-104.5-44t-39.5-109q0-67 42-109.5t107-42.5q61 0 118 47l37-113q-52-41-117-52v-67h-87z" glyph-name="cent" horiz-adv-x="490" unicode="¢"/><glyph d="M42 292v106h51v102q0 94 61.5 153.5t161.5 59.5q86 0 136.5-45.5t66.5-100.5l-115-49q-23 60-87 60-37 0-60.5-24t-23.5-61v-95h155v-106h-155v-169h302v-123h-500v123h58v169h-51z" glyph-name="sterling" horiz-adv-x="573" unicode="£"/><glyph d="M225 0v158h-154v91h154v71h-154v91h102l-163 289h159l126-251 126 251h159l-164-289h96v-91h-147v-71h147v-91h-147v-158h-140z" glyph-name="yen" horiz-adv-x="584" unicode="¥"/><glyph d="M477 235q0-91-87-133 76-60 76-142t-57-132.5-152-50.5q-49 0-90.5 15.5t-67.5 40.5-41.5 48-23.5 45l115 50q14-29 41.5-50.5t66.5-21.5q31 0 49.5 15.5t18.5 42.5q0 24-16.5 42.5t-49.5 38.5l-125 75q-101 60-101 157 0 43 23 78t63 54q-75 59-75 142 0 82 57 133t153 51q49 0 90-15.5t67-40.5 41-48 23-46l-115-50q-14 30-40.5 51.5t-65.5 21.5q-31 0-50-16.5t-19-42.5q0-24 16-42.5t49-38.5l115-68q112-66 112-163zM348 232q0 36-41 58l-83 45q-28-1-45-17.5t-17-40.5q0-34 31-51l92-52q28 1 45.5 17.5t17.5 40.5z" glyph-name="section" horiz-adv-x="511" unicode="§"/><glyph d="M145 585q-30 0-49 19.5t-19 48.5q0 28 19.5 48t48.5 20 48.5-20 19.5-48q0-29-19.5-48.5t-48.5-19.5zM337 585q-30 0-49 19.5t-19 48.5q0 28 19 48t49 20q29 0 48.5-20t19.5-48q0-29-19.5-48.5t-48.5-19.5z" glyph-name="dieresis" horiz-adv-x="483" unicode="¨"/><glyph d="M395 69q118 0 192.5 79.5t74.5 201.5q0 121-74.5 200t-193.5 79q-118 0-192.5-79t-74.5-200q0-122 75-201.5t193-79.5zM215 349q0 82 51 137t132 55q94 0 148-76l-73-59q-29 40-74 40-37 0-58.5-27t-21.5-70 21.5-70 58.5-27q45 0 74 40l73-58q-53-77-148-77-81 0-132 55t-51 137zM394 713q156 0 258-105t102-260q0-153-102-257.5t-257-104.5-257.5 104.5-102.5 257.5q0 154 102.5 259.5t256.5 105.5z" glyph-name="copyright" horiz-adv-x="790" unicode="©"/><glyph d="M34 432q0 59 41.5 94.5t110.5 35.5q49 0 84-20v23q0 26-18.5 41t-51.5 15q-52 0-105-28l-40 72q71 48 157 48 163 0 163-156v-248h-93l-7 24q-33-33-94-33-62 0-104.5 35.5t-42.5 96.5zM138 435q0-24 19-38.5t49-14.5q29 0 48 14.5t19 38.5-19 38.5-48 14.5q-30 0-49-15t-19-38z" glyph-name="ordfeminine" horiz-adv-x="411" unicode="ª"/><glyph d="M150 106l-122 187 122 188h123l-122-188 122-187h-123zM338 106l-122 187 122 188h123l-122-188 122-187h-123z" glyph-name="guillemotleft" horiz-adv-x="490" unicode="«"/><glyph d="M226 503h-21v-75h-59v216h88q35 0 56.5-20.5t21.5-49.5q0-43-34-59l40-87h-61zM229 594h-24v-43h24q9 0 15.5 6t6.5 16q0 21-22 21zM16 534q0 88 58 148t150 60q96 0 154-59t58-148q0-87-58-147t-152-60-152 58.5-58 147.5zM72 534q0-68 41.5-111.5t112.5-43.5 112.5 43.5 41.5 112.5q0 70-41.5 112.5t-114.5 42.5q-70 0-111-43.5t-41-112.5z" glyph-name="registered" horiz-adv-x="452" unicode="®"/><glyph d="M88 603v101h268v-101h-268z" glyph-name="macron" horiz-adv-x="445" unicode="¯"/><glyph d="M189 398q-71 0-116.5 44.5t-45.5 111.5 46 113 116 46 115.5-45.5 45.5-112.5-45-112-116-45zM189 619q-28 0-45.5-18.5t-17.5-45.5q0-28 17.5-46t45.5-18q30 0 46.5 17.5t16.5 46.5q0 27-17.5 45.5t-45.5 18.5z" glyph-name="degree" horiz-adv-x="378" unicode="°"/><glyph d="M37 303v42q0 33 18.5 63t45 51.5 53 40 45 38 18.5 36.5q0 18-11.5 29.5t-32.5 11.5q-40 0-57-45l-83 30q12 41 47 74.5t97 33.5q64 0 105.5-35t41.5-95q0-35-24-65.5t-53-48-57.5-38.5-35.5-37h175v-86h-292z" glyph-name="twosuperior" horiz-adv-x="360" unicode="²"/><glyph d="M313 700v-68l-89-89q44-6 73.5-36t29.5-80q0-63-42.5-97.5t-107.5-34.5q-62 0-97.5 33t-48.5 74q14 5 41.5 15t40.5 16q19-46 60-46 21 0 34.5 12.5t13.5 33.5q0 22-15.5 34.5t-41.5 12.5h-45v68l65 66h-135v86h264z" glyph-name="threesuperior" horiz-adv-x="357" unicode="³"/><glyph d="M135 581l67 144h145l-97-144h-115z" glyph-name="acute" horiz-adv-x="483" unicode="´"/><glyph d="M224-45v368q-80 1-134 55t-54 134 54.5 134 134.5 54h106v-745h-107zM391-45v745h107v-745h-107z" glyph-name="paragraph" horiz-adv-x="545" unicode="¶"/><glyph d="M124 229q-36 0-60.5 24.5t-24.5 59.5q0 36 24.5 61t60.5 25 60.5-25 24.5-61q0-35-24.5-59.5t-60.5-24.5z" glyph-name="periodcentered" horiz-adv-x="249" unicode="·"/><glyph d="M190-233q-28 0-58 9l16 71q20-5 33-5 43 0 43 33 0 31-50 31l-17-2 16 108h72l-8-51q36-7 56-32.5t20-59.5q0-47-35-74.5t-88-27.5z" glyph-name="cedilla" horiz-adv-x="445" unicode="¸"/><glyph d="M67 582l-26 88 86 30h86v-397h-104v295z" glyph-name="onesuperior" horiz-adv-x="286" unicode="¹"/><glyph d="M28 505q0 90 60.5 149t151.5 59q93 0 152-58.5t59-148.5q0-89-60.5-147.5t-151.5-58.5q-92 0-151.5 58t-59.5 147zM134 505q0-49 29.5-80.5t75.5-31.5 76.5 32 30.5 81q0 50-30.5 81.5t-76.5 31.5-75.5-32-29.5-82z" glyph-name="ordmasculine" horiz-adv-x="480" unicode="º"/><glyph d="M461 293l-122-187h-123l122 187-122 188h123zM273 293l-122-187h-123l122 187-122 188h123z" glyph-name="guillemotright" horiz-adv-x="490" unicode="»"/><glyph d="M654 0v73h-185v77l175 247h114v-236h44v-88h-44v-73h-104zM567 161h87v128zM279-41h-118l374 782h119zM76 582l-26 88 86 30h86v-397h-104v295z" glyph-name="onequarter" horiz-adv-x="831" unicode="¼"/><glyph d="M76 582l-26 88 86 30h86v-397h-104v295zM264-41h-118l374 782h119zM506 0v42q0 33 18.5 63t45 51.5 53 40 45 38 18.5 36.5q0 18-11.5 29.5t-32.5 11.5q-40 0-57-45l-83 30q12 41 47 74.5t97 33.5q64 0 105.5-35t41.5-95q0-35-24-65.5t-53-48-57.5-38.5-35.5-37h175v-86h-292z" glyph-name="onehalf" horiz-adv-x="843" unicode="½"/><glyph d="M325-41h-118l374 782h119zM691 0v73h-185v77l175 247h114v-236h44v-88h-44v-73h-104zM604 161h87v128zM318 700v-68l-89-89q44-6 73.5-36t29.5-80q0-63-42.5-97.5t-107.5-34.5q-62 0-97.5 33t-48.5 74q13 5 40.5 15t41.5 16q19-46 60-46 21 0 34.5 12.5t13.5 33.5q0 22-15.5 34.5t-41.5 12.5h-45v68l65 66h-135v86h264z" glyph-name="threequarters" horiz-adv-x="876" unicode="¾"/><glyph d="M330 348v-49q0-37-16.5-69t-40-54.5-47-43-40-45.5-16.5-51q0-31 23-53t61-22q63 0 89 62l110-49q-19-54-68-97t-133-43q-97 0-160 54.5t-63 139.5q0 42 17 77t41.5 59 49.5 45.5 42 46.5 17 51v41h134zM263 560q36 0 60.5-24.5t24.5-59.5q0-36-24.5-61t-60.5-25-60.5 25-24.5 61q0 35 24.5 59.5t60.5 24.5z" glyph-name="questiondown" horiz-adv-x="482" unicode="¿"/><glyph d="M449 180h-238l-61-180h-142l248 700h148l248-700h-142zM412 297l-82 252-81-252h163zM324 882l67-144h-115l-97 144h145z" glyph-name="Agrave" horiz-adv-x="660" unicode="À"/><glyph d="M449 180h-238l-61-180h-142l248 700h148l248-700h-142zM412 297l-82 252-81-252h163zM262 738l67 144h145l-97-144h-115z" glyph-name="Aacute" horiz-adv-x="660" unicode="Á"/><glyph d="M449 180h-238l-61-180h-142l248 700h148l248-700h-142zM412 297l-82 252-81-252h163zM379 739l-49 71-49-71h-117l95 140h142l95-140h-117z" glyph-name="Acircumflex" horiz-adv-x="660" unicode="Â"/><glyph d="M449 180h-238l-61-180h-142l248 700h148l248-700h-142zM412 297l-82 252-81-252h163zM398 744q-29 0-69.5 18.5t-55.5 18.5q-32 0-32-38h-87q0 60 30.5 97t79.5 37q30 0 70-18.5t53-18.5q32 0 32 38h87q0-61-29.5-97.5t-78.5-36.5z" glyph-name="Atilde" horiz-adv-x="660" unicode="Ã"/><glyph d="M449 180h-238l-61-180h-142l248 700h148l248-700h-142zM412 297l-82 252-81-252h163zM234 744q-30 0-49 19.5t-19 48.5q0 28 19.5 48t48.5 20 48.5-20 19.5-48q0-29-19.5-48.5t-48.5-19.5zM426 744q-30 0-49 19.5t-19 48.5q0 28 19 48t49 20q29 0 48.5-20t19.5-48q0-29-19.5-48.5t-48.5-19.5z" glyph-name="Adieresis" horiz-adv-x="660" unicode="Ä"/><glyph d="M449 180h-238l-61-180h-142l248 700h148l248-700h-142zM412 297l-82 252-81-252h163zM329 731q-45 0-75.5 28t-30.5 71q0 44 30 71.5t76 27.5q47 0 77.5-27.5t30.5-70.5q0-44-30.5-72t-77.5-28zM330 791q17 0 27.5 11t10.5 29q0 17-10.5 27.5t-27.5 10.5-27.5-11-10.5-28 10.5-28 27.5-11z" glyph-name="Aring" horiz-adv-x="660" unicode="Å"/><glyph d="M8 0l365 700h430v-127h-218v-156h187v-125h-187v-166h227v-126h-368v180h-192l-91-180h-153zM439 563l-135-266h140v266h-5z" glyph-name="AE" horiz-adv-x="857" unicode="Æ"/><glyph d="M330-233q-28 0-58 9l16 71q20-5 33-5 43 0 43 33 0 31-50 31l-17-2 13 91q-128 26-204 123.5t-76 231.5q0 155 103.5 259t261.5 104q121 0 208-64l-40-124q-79 56-168 56-95 0-156.5-66t-61.5-165q0-101 61.5-166t156.5-65q92 0 174 57l40-123q-89-66-214-66l-14 1-4-27q36-7 56-32.5t20-59.5q0-47-35-74.5t-88-27.5z" glyph-name="Ccedilla" horiz-adv-x="638" unicode="Ç"/><glyph d="M67 0v700h360v-127h-219v-156h188v-125h-188v-166h228v-126h-369zM262 882l67-144h-115l-97 144h145z" glyph-name="Egrave" horiz-adv-x="481" unicode="È"/><glyph d="M67 0v700h360v-127h-219v-156h188v-125h-188v-166h228v-126h-369zM178 738l67 144h145l-97-144h-115z" glyph-name="Eacute" horiz-adv-x="481" unicode="É"/><glyph d="M67 0v700h360v-127h-219v-156h188v-125h-188v-166h228v-126h-369zM300 739l-49 71-49-71h-117l95 140h142l95-140h-117z" glyph-name="Ecircumflex" horiz-adv-x="481" unicode="Ê"/><glyph d="M67 0v700h360v-127h-219v-156h188v-125h-188v-166h228v-126h-369zM156 744q-30 0-49 19.5t-19 48.5q0 28 19.5 48t48.5 20 48.5-20 19.5-48q0-29-19.5-48.5t-48.5-19.5zM348 744q-30 0-49 19.5t-19 48.5q0 28 19 48t49 20q29 0 48.5-20t19.5-48q0-29-19.5-48.5t-48.5-19.5z" glyph-name="Edieresis" horiz-adv-x="481" unicode="Ë"/><glyph d="M67 0v700h141v-700h-141zM147 882l67-144h-115l-97 144h145z" glyph-name="Igrave" horiz-adv-x="275" unicode="Ì"/><glyph d="M67 0v700h141v-700h-141zM69 738l67 144h145l-97-144h-115z" glyph-name="Iacute" horiz-adv-x="275" unicode="Í"/><glyph d="M67 0v700h141v-700h-141zM189 739l-49 71-49-71h-117l95 140h142l95-140h-117z" glyph-name="Icircumflex" horiz-adv-x="275" unicode="Î"/><glyph d="M67 0v700h141v-700h-141zM48 744q-30 0-49 19.5t-19 48.5q0 28 19.5 48t48.5 20 48.5-20 19.5-48q0-29-19.5-48.5t-48.5-19.5zM240 744q-30 0-49 19.5t-19 48.5q0 28 19 48t49 20q29 0 48.5-20t19.5-48q0-29-19.5-48.5t-48.5-19.5z" glyph-name="Idieresis" horiz-adv-x="275" unicode="Ï"/><glyph d="M22 290v124h56v286h185q173 0 272.5-93t99.5-257q0-166-99.5-258t-272.5-92h-185v290h-56zM219 122h50q101 0 160 58.5t59 169.5q0 108-59 167.5t-160 59.5h-50v-163h109v-124h-109v-168z" glyph-name="Eth" horiz-adv-x="666" unicode="Ð"/><glyph d="M507 0l-302 476v-476h-139v700h143l299-480v480h139v-700h-140zM428 744q-29 0-69.5 18.5t-55.5 18.5q-32 0-32-38h-87q0 60 30.5 97t79.5 37q30 0 70-18.5t53-18.5q32 0 32 38h87q0-61-29.5-97.5t-78.5-36.5z" glyph-name="Ntilde" horiz-adv-x="713" unicode="Ñ"/><glyph d="M394-13q-160 0-262 103.5t-102 259.5q0 155 102.5 259t261.5 104 261.5-104 102.5-259q0-156-102-259.5t-262-103.5zM394 581q-94 0-155.5-66t-61.5-165q0-101 61.5-166t155.5-65 155.5 65 61.5 166q0 99-61.5 165t-155.5 66zM394 882l67-144h-115l-97 144h145z" glyph-name="Ograve" horiz-adv-x="788" unicode="Ò"/><glyph d="M394-13q-160 0-262 103.5t-102 259.5q0 155 102.5 259t261.5 104 261.5-104 102.5-259q0-156-102-259.5t-262-103.5zM394 581q-94 0-155.5-66t-61.5-165q0-101 61.5-166t155.5-65 155.5 65 61.5 166q0 99-61.5 165t-155.5 66zM323 738l67 144h145l-97-144h-115z" glyph-name="Oacute" horiz-adv-x="788" unicode="Ó"/><glyph d="M394-13q-160 0-262 103.5t-102 259.5q0 155 102.5 259t261.5 104 261.5-104 102.5-259q0-156-102-259.5t-262-103.5zM394 581q-94 0-155.5-66t-61.5-165q0-101 61.5-166t155.5-65 155.5 65 61.5 166q0 99-61.5 165t-155.5 66zM446 739l-49 71-49-71h-117l95 140h142l95-140h-117z" glyph-name="Ocircumflex" horiz-adv-x="788" unicode="Ô"/><glyph d="M394-13q-160 0-262 103.5t-102 259.5q0 155 102.5 259t261.5 104 261.5-104 102.5-259q0-156-102-259.5t-262-103.5zM394 581q-94 0-155.5-66t-61.5-165q0-101 61.5-166t155.5-65 155.5 65 61.5 166q0 99-61.5 165t-155.5 66zM463 744q-29 0-69.5 18.5t-55.5 18.5q-32 0-32-38h-87q0 60 30.5 97t79.5 37q30 0 70-18.5t53-18.5q32 0 32 38h87q0-61-29.5-97.5t-78.5-36.5z" glyph-name="Otilde" horiz-adv-x="788" unicode="Õ"/><glyph d="M394-13q-160 0-262 103.5t-102 259.5q0 155 102.5 259t261.5 104 261.5-104 102.5-259q0-156-102-259.5t-262-103.5zM394 581q-94 0-155.5-66t-61.5-165q0-101 61.5-166t155.5-65 155.5 65 61.5 166q0 99-61.5 165t-155.5 66zM301 744q-30 0-49 19.5t-19 48.5q0 28 19.5 48t48.5 20 48.5-20 19.5-48q0-29-19.5-48.5t-48.5-19.5zM493 744q-30 0-49 19.5t-19 48.5q0 28 19 48t49 20q29 0 48.5-20t19.5-48q0-29-19.5-48.5t-48.5-19.5z" glyph-name="Odieresis" horiz-adv-x="789" unicode="Ö"/><glyph d="M415 69l-152 162-152-162-78 78 154 163-154 163 78 78 152-162 152 162 78-78-154-163 154-163z" glyph-name="multiply" horiz-adv-x="529" unicode="×"/><glyph d="M394-13q-107 0-191 48l-47-59-75 60 47 59q-98 101-98 255 0 155 102.5 259t261.5 104q102 0 187-47l46 58 76-60-46-57q101-103 101-257 0-156-102-259.5t-262-103.5zM611 350q0 82-44 143l-277-349q47-25 104-25 94 0 155.5 65t61.5 166zM394 581q-94 0-155.5-66t-61.5-165q0-81 41-141l276 348q-46 24-100 24z" glyph-name="Oslash" horiz-adv-x="788" unicode="Ø"/><glyph d="M346-13q-134 0-208 75t-74 201v437h141v-437q0-67 37-106t104-39 104 39 37 106v437h141v-437q0-126-74-201t-208-75zM350 882l67-144h-115l-97 144h145z" glyph-name="Ugrave" horiz-adv-x="692" unicode="Ù"/><glyph d="M346-13q134 0 208 75t74 201v437h-141v-437q0-67-37-106t-104-39-104 39-37 106v437h-141v-437q0-126 74-201t208-75zM280 738l67 144h145l-97-144h-115z" glyph-name="Uacute" horiz-adv-x="692" unicode="Ú"/><glyph d="M346-13q-134 0-208 75t-74 201v437h141v-437q0-67 37-106t104-39 104 39 37 106v437h141v-437q0-126-74-201t-208-75zM395 739l-49 71-49-71h-117l95 140h142l95-140h-117z" glyph-name="Ucircumflex" horiz-adv-x="692" unicode="Û"/><glyph d="M346-13q134 0 208 75t74 201v437h-141v-437q0-67-37-106t-104-39-104 39-37 106v437h-141v-437q0-126 74-201t208-75zM253 744q-30 0-49 19.5t-19 48.5q0 28 19.5 48t48.5 20 48.5-20 19.5-48q0-29-19.5-48.5t-48.5-19.5zM445 744q-30 0-49 19.5t-19 48.5q0 28 19 48t49 20q29 0 48.5-20t19.5-48q0-29-19.5-48.5t-48.5-19.5z" glyph-name="Udieresis" horiz-adv-x="692" unicode="Ü"/><glyph d="M222 0v320l-215 380h159l126-251 126 251h159l-215-380v-320h-140zM228 738l67 144h145l-97-144h-115z" glyph-name="Yacute" horiz-adv-x="584" unicode="Ý"/><glyph d="M67 0v700h141v-123h82q103 0 166.5-59.5t63.5-158.5q0-97-65-159t-164-62h-83v-138h-141zM208 260h63q46 0 75 27.5t29 71.5q0 43-28.5 69.5t-73.5 26.5h-65v-195z" glyph-name="Thorn" horiz-adv-x="542" unicode="Þ"/><glyph d="M261 723q103 0 159.5-43.5t56.5-122.5q0-41-20-72t-45-45q124-60 124-199 0-110-77.5-175.5t-206.5-65.5v116q67 0 106.5 33.5t39.5 92.5q0 61-41 92t-105 31v110q42 0 66 18t24 51q0 26-20 44.5t-56 18.5-55-19-19-54v-534h-138v542q0 94 57.5 137.5t149.5 43.5z" glyph-name="germandbls" horiz-adv-x="560" unicode="ß"/><glyph d="M24 162q0 77 56 125t147 48q71 0 113-29v34q0 35-25 56t-70 21q-67 0-139-37l-52 94q38 26 93.5 44t112.5 18q118 0 168-54.5t50-150.5v-331h-122l-9 34q-44-47-127-47t-139.5 47.5-56.5 127.5zM162 166q0-32 26-52t65-20q40 0 65 19.5t25 52.5q0 34-25 53.5t-66 19.5q-40 0-65-20.5t-25-52.5zM272 725l67-144h-115l-97 144h145z" glyph-name="agrave" horiz-adv-x="526" unicode="à"/><glyph d="M24 162q0 77 56 125t147 48q71 0 113-29v34q0 35-25 56t-70 21q-67 0-139-37l-52 94q38 26 93.5 44t112.5 18q118 0 168-54.5t50-150.5v-331h-122l-9 34q-44-47-127-47t-139.5 47.5-56.5 127.5zM162 166q0-32 26-52t65-20q40 0 65 19.5t25 52.5q0 34-25 53.5t-66 19.5q-40 0-65-20.5t-25-52.5zM195 581l67 144h145l-97-144h-115z" glyph-name="aacute" horiz-adv-x="526" unicode="á"/><glyph d="M24 162q0 77 56 125t147 48q71 0 113-29v34q0 35-25 56t-70 21q-67 0-139-37l-52 94q38 26 93.5 44t112.5 18q118 0 168-54.5t50-150.5v-331h-122l-9 34q-44-47-127-47t-139.5 47.5-56.5 127.5zM162 166q0-32 26-52t65-20q40 0 65 19.5t25 52.5q0 34-25 53.5t-66 19.5q-40 0-65-20.5t-25-52.5zM312 584l-49 71-49-71h-117l95 140h142l95-140h-117z" glyph-name="acircumflex" horiz-adv-x="526" unicode="â"/><glyph d="M24 162q0 77 56 125t147 48q71 0 113-29v34q0 35-25 56t-70 21q-67 0-139-37l-52 94q38 26 93.5 44t112.5 18q118 0 168-54.5t50-150.5v-331h-122l-9 34q-44-47-127-47t-139.5 47.5-56.5 127.5zM162 166q0-32 26-52t65-20q40 0 65 19.5t25 52.5q0 34-25 53.5t-66 19.5q-40 0-65-20.5t-25-52.5zM326 587q-29 0-69.5 18.5t-55.5 18.5q-32 0-32-38h-87q0 60 30.5 97t79.5 37q30 0 70-18.5t53-18.5q32 0 32 38h87q0-61-29.5-97.5t-78.5-36.5z" glyph-name="atilde" horiz-adv-x="526" unicode="ã"/><glyph d="M24 162q0 77 56 125t147 48q71 0 113-29v34q0 35-25 56t-70 21q-67 0-139-37l-52 94q38 26 93.5 44t112.5 18q118 0 168-54.5t50-150.5v-331h-122l-9 34q-44-47-127-47t-139.5 47.5-56.5 127.5zM162 166q0-32 26-52t65-20q40 0 65 19.5t25 52.5q0 34-25 53.5t-66 19.5q-40 0-65-20.5t-25-52.5zM172 585q-30 0-49 19.5t-19 48.5q0 28 19.5 48t48.5 20 48.5-20 19.5-48q0-29-19.5-48.5t-48.5-19.5zM364 585q-30 0-49 19.5t-19 48.5q0 28 19 48t49 20q29 0 48.5-20t19.5-48q0-29-19.5-48.5t-48.5-19.5z" glyph-name="adieresis" horiz-adv-x="526" unicode="ä"/><glyph d="M24 162q0 77 56 125t147 48q71 0 113-29v34q0 35-25 56t-70 21q-67 0-139-37l-52 94q38 26 93.5 44t112.5 18q118 0 168-54.5t50-150.5v-331h-122l-9 34q-44-47-127-47t-139.5 47.5-56.5 127.5zM162 166q0-32 26-52t65-20q40 0 65 19.5t25 52.5q0 34-25 53.5t-66 19.5q-40 0-65-20.5t-25-52.5zM267 564q-45 0-75.5 28t-30.5 71q0 44 30 71.5t76 27.5q47 0 77.5-27.5t30.5-70.5q0-44-30.5-72t-77.5-28zM268 624q17 0 27.5 11t10.5 29q0 17-10.5 27.5t-27.5 10.5-27.5-11-10.5-28 10.5-28 27.5-11z" glyph-name="aring" horiz-adv-x="526" unicode="å"/><glyph d="M162 166q0-32 26-52t65-20 64 19.5 25 52.5q0 34-25 53.5t-65 19.5-65-20.5-25-52.5zM482 317h224q-2 48-33 77t-79 29q-47 0-77-30t-35-76zM478 227q2-53 40-86.5t96-33.5q83 0 127 64l91-69q-22-40-78-77.5t-142-37.5q-137 0-208 87-56-87-184-87-83 0-139.5 47.5t-56.5 127.5q0 77 56 125t147 48q71 0 113-29v34q0 35-25 56t-70 21q-67 0-139-37-8 14-52 94 95 62 206 62 116 0 167-66 66 66 165 66 121 0 188-74.5t67-204.5q0-20-1-30h-368z" glyph-name="ae" horiz-adv-x="870" unicode="æ"/><glyph d="M253-233q-28 0-58 9l16 71q20-5 33-5 43 0 43 33 0 31-50 31l-17-2 13 91q-94 20-151 92t-57 173q0 119 79.5 197.5t198.5 78.5q92 0 165-56l-39-116q-55 50-122 50-65 0-104.5-44t-39.5-109q0-67 42-109.5t107-42.5q61 0 118 47l37-113q-70-56-163-56l-4-26q36-7 56-32.5t20-59.5q0-47-35-74.5t-88-27.5z" glyph-name="ccedilla" horiz-adv-x="490" unicode="ç"/><glyph d="M26 260q0 119 72.5 197.5t183.5 78.5q120 0 187-74.5t67-204.5q0-20-1-30h-368q2-53 40-86.5t96-33.5q83 0 127 64l91-69q-22-40-78-77.5t-142-37.5q-124 0-199.5 76.5t-75.5 196.5zM171 317h225q-2 48-33 77t-79 29-78-30-35-76zM290 725l67-144h-115l-97 144h145z" glyph-name="egrave" horiz-adv-x="559" unicode="è"/><glyph d="M26 260q0 119 72.5 197.5t183.5 78.5q120 0 187-74.5t67-204.5q0-20-1-30h-368q2-53 40-86.5t96-33.5q83 0 127 64l91-69q-22-40-78-77.5t-142-37.5q-124 0-199.5 76.5t-75.5 196.5zM171 317h225q-2 48-33 77t-79 29-78-30-35-76zM211 581l67 144h145l-97-144h-115z" glyph-name="eacute" horiz-adv-x="559" unicode="é"/><glyph d="M26 260q0 119 72.5 197.5t183.5 78.5q120 0 187-74.5t67-204.5q0-20-1-30h-368q2-53 40-86.5t96-33.5q83 0 127 64l91-69q-22-40-78-77.5t-142-37.5q-124 0-199.5 76.5t-75.5 196.5zM171 317h225q-2 48-33 77t-79 29-78-30-35-76zM336 584l-49 71-49-71h-117l95 140h142l95-140h-117z" glyph-name="ecircumflex" horiz-adv-x="559" unicode="ê"/><glyph d="M26 260q0 119 72.5 197.5t183.5 78.5q120 0 187-74.5t67-204.5q0-20-1-30h-368q2-53 40-86.5t96-33.5q83 0 127 64l91-69q-22-40-78-77.5t-142-37.5q-124 0-199.5 76.5t-75.5 196.5zM171 317h225q-2 48-33 77t-79 29-78-30-35-76zM192 585q-30 0-49 19.5t-19 48.5q0 28 19.5 48t48.5 20 48.5-20 19.5-48q0-29-19.5-48.5t-48.5-19.5zM384 585q-30 0-49 19.5t-19 48.5q0 28 19 48t49 20q29 0 48.5-20t19.5-48q0-29-19.5-48.5t-48.5-19.5z" glyph-name="edieresis" horiz-adv-x="559" unicode="ë"/><glyph d="M131 725l67-144h-115l-97 144h145zM54 0v523h138v-523h-138z" glyph-name="igrave" unicode="ì"/><glyph d="M48 581l67 144h145l-97-144h-115zM54 0v523h138v-523h-138z" glyph-name="iacute" unicode="í"/><glyph d="M54 0v523h138v-523h-138zM176 584l-49 71-49-71h-117l95 140h142l95-140h-117z" glyph-name="icircumflex" unicode="î"/><glyph d="M31 585q-30 0-49 19.5t-19 48.5q0 28 19.5 48t48.5 20 48.5-20 19.5-48q0-29-19.5-48.5t-48.5-19.5zM223 585q-30 0-49 19.5t-19 48.5q0 28 19 48t49 20q29 0 48.5-20t19.5-48q0-29-19.5-48.5t-48.5-19.5zM54 0v523h138v-523h-138z" glyph-name="idieresis" unicode="ï"/><glyph d="M25 250q0 110 72 180t176 70q33 0 59-8-23 36-63 65l-159-57-12 87 91 34q-38 27-85 54l79 69q65-28 140-77l132 50 13-90-70-26q161-144 161-325 0-124-68-206.5t-201-82.5q-119 0-192 75.5t-73 187.5zM163 250q0-61 34-101.5t92-40.5q64 0 98 41t34 105q0 55-35 94t-91 39q-62 0-97-39t-35-98z" glyph-name="eth" horiz-adv-x="588" unicode="ð"/><glyph d="M329 536q181 0 181-234v-302h-138v318q0 42-25.5 68t-61.5 26q-42 0-67.5-27.5t-25.5-70.5v-314h-138v523h135v-61q19 30 56 52t84 22zM350 587q-29 0-69.5 18.5t-55.5 18.5q-32 0-32-38h-87q0 60 30.5 97t79.5 37q30 0 70-18.5t53-18.5q32 0 32 38h87q0-61-29.5-97.5t-78.5-36.5z" glyph-name="ntilde" horiz-adv-x="560" unicode="ñ"/><glyph d="M25 260q0 119 80.5 197.5t200.5 78.5 201-79 81-197q0-119-79.5-196t-202.5-77q-122 0-201.5 77t-79.5 196zM163 260q0-66 40.5-108.5t102.5-42.5q63 0 103.5 42.5t40.5 108.5q0 67-41 110.5t-103 43.5-102.5-43.5-40.5-110.5zM306 725l67-144h-115l-97 144h145z" glyph-name="ograve" horiz-adv-x="613" unicode="ò"/><glyph d="M25 260q0 119 80.5 197.5t200.5 78.5 201-79 81-197q0-119-79.5-196t-202.5-77q-122 0-201.5 77t-79.5 196zM163 260q0-66 40.5-108.5t102.5-42.5q63 0 103.5 42.5t40.5 108.5q0 67-41 110.5t-103 43.5-102.5-43.5-40.5-110.5zM233 581l67 144h145l-97-144h-115z" glyph-name="oacute" horiz-adv-x="613" unicode="ó"/><glyph d="M25 260q0 119 80.5 197.5t200.5 78.5 201-79 81-197q0-119-79.5-196t-202.5-77q-122 0-201.5 77t-79.5 196zM163 260q0-66 40.5-108.5t102.5-42.5q63 0 103.5 42.5t40.5 108.5q0 67-41 110.5t-103 43.5-102.5-43.5-40.5-110.5zM359 584l-49 71-49-71h-117l95 140h142l95-140h-117z" glyph-name="ocircumflex" horiz-adv-x="613" unicode="ô"/><glyph d="M25 260q0 119 80.5 197.5t200.5 78.5 201-79 81-197q0-119-79.5-196t-202.5-77q-122 0-201.5 77t-79.5 196zM163 260q0-66 40.5-108.5t102.5-42.5q63 0 103.5 42.5t40.5 108.5q0 67-41 110.5t-103 43.5-102.5-43.5-40.5-110.5zM376 587q-29 0-69.5 18.5t-55.5 18.5q-32 0-32-38h-87q0 60 30.5 97t79.5 37q30 0 70-18.5t53-18.5q32 0 32 38h87q0-61-29.5-97.5t-78.5-36.5z" glyph-name="otilde" horiz-adv-x="613" unicode="õ"/><glyph d="M25 260q0 119 80.5 197.5t200.5 78.5 201-79 81-197q0-119-79.5-196t-202.5-77q-122 0-201.5 77t-79.5 196zM163 260q0-66 40.5-108.5t102.5-42.5q63 0 103.5 42.5t40.5 108.5q0 67-41 110.5t-103 43.5-102.5-43.5-40.5-110.5zM214 585q-30 0-49 19.5t-19 48.5q0 28 19.5 48t48.5 20 48.5-20 19.5-48q0-29-19.5-48.5t-48.5-19.5zM406 585q-30 0-49 19.5t-19 48.5q0 28 19 48t49 20q29 0 48.5-20t19.5-48q0-29-19.5-48.5t-48.5-19.5z" glyph-name="odieresis" horiz-adv-x="613" unicode="ö"/><glyph d="M275 431q-30 0-50.5 20.5t-20.5 49.5q0 30 20.5 51.5t50.5 21.5 51-21.5 21-51.5q0-29-21-49.5t-51-20.5zM275 49q-30 0-50.5 21t-20.5 50q0 30 20.5 51t50.5 21 51-21 21-51q0-29-21-50t-51-21zM37 256v111h477v-111h-477z" glyph-name="divide" horiz-adv-x="551" unicode="÷"/><glyph d="M25 260q0 119 80.5 197.5t200.5 78.5q76 0 139-34l38 48 66-51-37-47q76-79 76-192 0-119-79.5-196t-202.5-77q-75 0-137 31l-39-50-65 51 37 47q-77 79-77 194zM163 260q0-50 23-87l180 228q-29 13-60 13-62 0-102.5-43.5t-40.5-110.5zM450 260q0 47-22 85l-178-226q24-10 56-10 63 0 103.5 42.5t40.5 108.5z" glyph-name="oslash" horiz-adv-x="613" unicode="ø"/><glyph d="M231-13q-181 0-181 234v302h138v-318q0-42 25.5-68t61.5-26q42 0 67.5 27.5t25.5 70.5v314h138v-523h-135v61q-19-30-56-52t-84-22zM288 725l67-144h-115l-97 144h145z" glyph-name="ugrave" horiz-adv-x="556" unicode="ù"/><glyph d="M231-13q-181 0-181 234v302h138v-318q0-42 25.5-68t61.5-26q42 0 67.5 27.5t25.5 70.5v314h138v-523h-135v61q-19-30-56-52t-84-22zM207 581l67 144h145l-97-144h-115z" glyph-name="uacute" horiz-adv-x="556" unicode="ú"/><glyph d="M231-13q-181 0-181 234v302h138v-318q0-42 25.5-68t61.5-26q42 0 67.5 27.5t25.5 70.5v314h138v-523h-135v61q-19-30-56-52t-84-22zM330 584l-49 71-49-71h-117l95 140h142l95-140h-117z" glyph-name="ucircumflex" horiz-adv-x="556" unicode="û"/><glyph d="M231-13q-181 0-181 234v302h138v-318q0-42 25.5-68t61.5-26q42 0 67.5 27.5t25.5 70.5v314h138v-523h-135v61q-19-30-56-52t-84-22zM188 585q-30 0-49 19.5t-19 48.5q0 28 19.5 48t48.5 20 48.5-20 19.5-48q0-29-19.5-48.5t-48.5-19.5zM380 585q-30 0-49 19.5t-19 48.5q0 28 19 48t49 20q29 0 48.5-20t19.5-48q0-29-19.5-48.5t-48.5-19.5z" glyph-name="udieresis" horiz-adv-x="556" unicode="ü"/><glyph d="M266-179h-132l73 192-201 510h148l117-341 118 341h144zM203 581l67 144h145l-97-144h-115z" glyph-name="yacute" horiz-adv-x="540" unicode="ý"/><glyph d="M54-187v910h138v-247q57 60 147 60 112 0 184-77t72-197q0-122-68-198.5t-180-76.5q-41 0-77 14t-52.5 27.5-25.5 25.5v-241h-138zM188 263q0-72 37.5-113t96.5-41q60 0 97 43t37 111-37.5 109.5-96.5 41.5q-61 0-97.5-43.5t-36.5-107.5z" glyph-name="thorn" horiz-adv-x="621" unicode="þ"/><glyph d="M266-179h-132l73 192-201 510h148l117-341 118 341h144zM176 585q-30 0-49 19.5t-19 48.5q0 28 19.5 48t48.5 20 48.5-20 19.5-48q0-29-19.5-48.5t-48.5-19.5zM368 585q-30 0-49 19.5t-19 48.5q0 28 19 48t49 20q29 0 48.5-20t19.5-48q0-29-19.5-48.5t-48.5-19.5z" glyph-name="ydieresis" horiz-adv-x="540" unicode="ÿ"/><glyph d="M449 180h-238l-61-180h-142l248 700h148l248-700h-142zM412 297l-82 252-81-252h163zM196 751v101h268v-101h-268z" glyph-name="Amacron" horiz-adv-x="660" unicode="Ā"/><glyph d="M24 162q0 77 56 125t147 48q71 0 113-29v34q0 35-25 56t-70 21q-67 0-139-37l-52 94q38 26 93.5 44t112.5 18q118 0 168-54.5t50-150.5v-331h-122l-9 34q-44-47-127-47t-139.5 47.5-56.5 127.5zM162 166q0-32 26-52t65-20q40 0 65 19.5t25 52.5q0 34-25 53.5t-66 19.5q-40 0-65-20.5t-25-52.5zM133 603v101h268v-101h-268z" glyph-name="amacron" horiz-adv-x="526" unicode="ā"/><glyph d="M449 180h-238l-61-180h-142l248 700h148l248-700h-142zM412 297l-82 252-81-252h163zM330 741q-71 0-111 39.5t-40 103.5h99q0-62 52-62 53 0 53 62h99q0-64-40-103.5t-112-39.5z" glyph-name="Abreve" horiz-adv-x="660" unicode="Ă"/><glyph d="M24 162q0 77 56 125t147 48q71 0 113-29v34q0 35-25 56t-70 21q-67 0-139-37l-52 94q38 26 93.5 44t112.5 18q118 0 168-54.5t50-150.5v-331h-122l-9 34q-44-47-127-47t-139.5 47.5-56.5 127.5zM162 166q0-32 26-52t65-20q40 0 65 19.5t25 52.5q0 34-25 53.5t-66 19.5q-40 0-65-20.5t-25-52.5zM261 581q-71 0-111 39.5t-40 103.5h99q0-62 52-62 53 0 53 62h99q0-64-40-103.5t-112-39.5z" glyph-name="abreve" horiz-adv-x="526" unicode="ă"/><glyph d="M483-108q0 38 24 66.5t53 41.5h-50l-61 180h-238l-61-180h-142l248 700h148l248-700q-55-23-55-64 0-19 16-29.5t36-10.5v-98q-14-4-35-4-131 0-131 98zM412 297l-82 252-81-252h163z" glyph-name="Aogonek" horiz-adv-x="660" unicode="Ą"/><glyph d="M309-108q0 38 24 66.5t53 41.5h-30l-9 34q-44-47-127-47t-139.5 47.5-56.5 127.5q0 77 56 125t147 48q71 0 113-29v34q0 35-25 56t-70 21q-67 0-139-37l-52 94q38 26 93.5 44t112.5 18q118 0 168-54.5t50-150.5v-331q-55-23-55-64 0-19 16-29.5t36-10.5v-98q-14-4-35-4-131 0-131 98zM162 166q0-32 26-52t65-20q40 0 65 19.5t25 52.5q0 34-25 53.5t-66 19.5q-40 0-65-20.5t-25-52.5z" glyph-name="aogonek" horiz-adv-x="526" unicode="ą"/><glyph d="M395-13q-162 0-263.5 103t-101.5 260q0 155 103.5 259t261.5 104q121 0 208-64l-40-124q-79 56-168 56-95 0-156.5-66t-61.5-165q0-101 61.5-166t156.5-65q92 0 174 57l40-123q-89-66-214-66zM303 738l67 144h145l-97-144h-115z" glyph-name="Cacute" horiz-adv-x="638" unicode="Ć"/><glyph d="M312 109q61 0 118 47l37-113q-70-56-163-56-122 0-200.5 77t-78.5 196 79.5 197.5 198.5 78.5q92 0 165-56l-39-116q-55 50-122 50-65 0-104.5-44t-39.5-109q0-67 42-109.5t107-42.5zM214 581l67 144h145l-97-144h-115z" glyph-name="cacute" horiz-adv-x="490" unicode="ć"/><glyph d="M395-13q-162 0-263.5 103t-101.5 260q0 155 103.5 259t261.5 104q121 0 208-64l-40-124q-79 56-168 56-95 0-156.5-66t-61.5-165q0-101 61.5-166t156.5-65q92 0 174 57l40-123q-89-66-214-66zM441 739l-49 71-49-71h-117l95 140h142l95-140h-117z" glyph-name="Ccircumflex" horiz-adv-x="638" unicode="Ĉ"/><glyph d="M312 109q61 0 118 47l37-113q-70-56-163-56-122 0-200.5 77t-78.5 196 79.5 197.5 198.5 78.5q92 0 165-56l-39-116q-55 50-122 50-65 0-104.5-44t-39.5-109q0-67 42-109.5t107-42.5zM347 584l-49 71-49-71h-117l95 140h142l95-140h-117z" glyph-name="ccircumflex" horiz-adv-x="490" unicode="ĉ"/><glyph d="M395-13q-162 0-263.5 103t-101.5 260q0 155 103.5 259t261.5 104q121 0 208-64l-40-124q-79 56-168 56-95 0-156.5-66t-61.5-165q0-101 61.5-166t156.5-65q92 0 174 57l40-123q-89-66-214-66zM315 809q0 34 23 56.5t57 22.5q35 0 58-22.5t23-56.5-23-56.5-58-22.5q-34 0-57 22.5t-23 56.5z" glyph-name="Cdotaccent" horiz-adv-x="638" unicode="Ċ"/><glyph d="M311 109q61 0 118 47l37-113q-70-56-163-56-122 0-200.5 77t-78.5 196 79.5 197.5 198.5 78.5q92 0 165-56l-39-116q-55 50-122 50-65 0-104.5-44t-39.5-109q0-67 42-109.5t107-42.5zM221 649q0 34 23 56.5t57 22.5q35 0 58-22.5t23-56.5-23-56.5-58-22.5q-34 0-57 22.5t-23 56.5z" glyph-name="cdotaccent" horiz-adv-x="490" unicode="ċ"/><glyph d="M395-13q-162 0-263.5 103t-101.5 260q0 155 103.5 259t261.5 104q121 0 208-64l-40-124q-79 56-168 56-95 0-156.5-66t-61.5-165q0-101 61.5-166t156.5-65q92 0 174 57l40-123q-89-66-214-66zM392 808l49 71h117l-95-140h-142l-95 140h117z" glyph-name="Ccaron" horiz-adv-x="638" unicode="Č"/><glyph d="M312 109q61 0 118 47l37-113q-70-56-163-56-122 0-200.5 77t-78.5 196 79.5 197.5 198.5 78.5q92 0 165-56l-39-116q-55 50-122 50-65 0-104.5-44t-39.5-109q0-67 42-109.5t107-42.5zM295 653l49 71h117l-95-140h-142l-95 140h117z" glyph-name="ccaron" horiz-adv-x="490" unicode="č"/><glyph d="M67 0v700h186q172 0 271.5-93t99.5-257q0-166-99-258t-272-92h-186zM208 122h50q102 0 160.5 58.5t58.5 169.5q0 109-59 168t-160 59h-50v-455zM281 808l49 71h117l-95-140h-142l-95 140h117z" glyph-name="Dcaron" horiz-adv-x="655" unicode="Ď"/><glyph d="M598 549l7 174h130l-46-174h-91zM566 0v723h-138v-255q-16 22-56 45t-99 23q-112 0-180-76.5t-68-198.5q0-121 71.5-197.5t184.5-76.5q58 0 97.5 22.5t57.5 44.5v-54h130zM432 260q0-64-36.5-107.5t-97.5-43.5q-59 0-96.5 41t-37.5 110q0 68 37 111t97 43q59 0 96.5-41t37.5-113z" glyph-name="dcaron" horiz-adv-x="620" unicode="ď"/><glyph d="M22 290v124h56v286h185q173 0 272-93t99-257q0-166-99-258t-272-92h-185v290h-56zM219 122h50q101 0 160 58.5t59 169.5q0 108-59 167.5t-160 59.5h-50v-163h109v-124h-109v-168z" glyph-name="Dcroat" horiz-adv-x="665" unicode="Đ"/><glyph d="M566 723v-65h58v-89h-58v-569h-130v54q-10-13-26.5-26t-52.5-27-76-14q-113 0-184.5 76.5t-71.5 197.5q0 122 68 198.5t180 76.5q59 0 99-23t56-45v101h-127v89h127v65h138zM432 260q0 72-37.5 113t-96.5 41q-60 0-97-43t-37-111q0-69 37.5-110t96.5-41q61 0 97.5 43.5t36.5 107.5z" glyph-name="dcroat" horiz-adv-x="620" unicode="đ"/><glyph d="M67 0v700h360v-127h-219v-156h188v-125h-188v-166h228v-126h-369zM120 751v101h268v-101h-268z" glyph-name="Emacron" horiz-adv-x="481" unicode="Ē"/><glyph d="M26 260q0 119 72.5 197.5t183.5 78.5q120 0 187-74.5t67-204.5q0-20-1-30h-368q2-53 40-86.5t96-33.5q83 0 127 64l91-69q-22-40-78-77.5t-142-37.5q-124 0-199.5 76.5t-75.5 196.5zM171 317h225q-2 48-33 77t-79 29-78-30-35-76zM155 603v101h268v-101h-268z" glyph-name="emacron" horiz-adv-x="559" unicode="ē"/><glyph d="M67 0v700h360v-127h-219v-156h188v-125h-188v-166h228v-126h-369zM250 741q-71 0-111 39.5t-40 103.5h99q0-62 52-62 53 0 53 62h99q0-64-40-103.5t-112-39.5z" glyph-name="Ebreve" horiz-adv-x="481" unicode="Ĕ"/><glyph d="M26 260q0 119 72.5 197.5t183.5 78.5q120 0 187-74.5t67-204.5q0-20-1-30h-368q2-53 40-86.5t96-33.5q83 0 127 64l91-69q-22-40-78-77.5t-142-37.5q-124 0-199.5 76.5t-75.5 196.5zM171 317h225q-2 48-33 77t-79 29-78-30-35-76zM282 581q-71 0-111 39.5t-40 103.5h99q0-62 52-62 53 0 53 62h99q0-64-40-103.5t-112-39.5z" glyph-name="ebreve" horiz-adv-x="559" unicode="ĕ"/><glyph d="M67 0v700h360v-127h-219v-156h188v-125h-188v-166h228v-126h-369zM177 809q0 34 23 56.5t57 22.5q35 0 58-22.5t23-56.5-23-56.5-58-22.5q-34 0-57 22.5t-23 56.5z" glyph-name="Edotaccent" horiz-adv-x="481" unicode="Ė"/><glyph d="M26 260q0 119 72.5 197.5t183.5 78.5q120 0 187-74.5t67-204.5q0-20-1-30h-368q2-53 40-86.5t96-33.5q83 0 127 64l91-69q-22-40-78-77.5t-142-37.5q-124 0-199.5 76.5t-75.5 196.5zM171 317h225q-2 48-33 77t-79 29-78-30-35-76zM206 649q0 34 23 56.5t57 22.5q35 0 58-22.5t23-56.5-23-56.5-58-22.5q-34 0-57 22.5t-23 56.5z" glyph-name="edotaccent" horiz-adv-x="559" unicode="ė"/><glyph d="M67 0v700h360v-127h-219v-156h188v-125h-188v-166h228v-126q-55-23-55-64 0-19 16-29.5t36-10.5v-98q-14-4-35-4-131 0-131 98 0 38 24 66.5t53 41.5h-277z" glyph-name="Eogonek" horiz-adv-x="481" unicode="Ę"/><glyph d="M256-108q0 56 55 95h-10q-124 0-199.5 76.5t-75.5 196.5q0 119 72.5 197.5t183.5 78.5q120 0 187-74.5t67-204.5q0-20-1-30h-368q2-53 40-86.5t96-33.5q83 0 127 64l91-69q-25-43-76-76-38-25-56.5-44.5t-18.5-43.5q0-19 15.5-30.5t36.5-11.5v-98q-14-4-35-4-131 0-131 98zM171 317h225q-2 48-33 77t-79 29-78-30-35-76z" glyph-name="eogonek" horiz-adv-x="559" unicode="ę"/><glyph d="M67 0v700h360v-127h-219v-156h188v-125h-188v-166h228v-126h-369zM259 808l49 71h117l-95-140h-142l-95 140h117z" glyph-name="Ecaron" horiz-adv-x="481" unicode="Ě"/><glyph d="M26 260q0 119 72.5 197.5t183.5 78.5q120 0 187-74.5t67-204.5q0-20-1-30h-368q2-53 40-86.5t96-33.5q83 0 127 64l91-69q-22-40-78-77.5t-142-37.5q-124 0-199.5 76.5t-75.5 196.5zM171 317h225q-2 48-33 77t-79 29-78-30-35-76zM284 653l49 71h117l-95-140h-142l-95 140h117z" glyph-name="ecaron" horiz-adv-x="559" unicode="ě"/><glyph d="M393 713q98 0 169-36.5t107-79.5l-89-92q-70 77-181 77-101 0-161.5-66t-60.5-166q0-105 62.5-168t159.5-63q64 0 107 18.5t61 36.5v86h-133v119h265v-277q-65-56-135-85.5t-171-29.5q-153 0-258 100.5t-105 262.5q0 153 102.5 258t260.5 105zM446 739l-49 71-49-71h-117l95 140h142l95-140h-117z" glyph-name="Gcircumflex" horiz-adv-x="747" unicode="Ĝ"/><glyph d="M92-144l42 106q68-36 149-36 144 0 144 104v24q-8-11-24-24.5t-52-28-77-14.5q-113 0-181.5 76t-68.5 198q0 121 71.5 198t183.5 77q58 0 98.5-22.5t57.5-45.5v55h130v-457q0-137-77-197.5t-204-60.5q-105 0-192 48zM431 262q0 67-37.5 109.5t-97.5 42.5q-59 0-96-42t-37-110 37.5-110.5 96.5-42.5q60 0 97 42t37 111zM357 584l-49 71-49-71h-117l95 140h142l95-140h-117z" glyph-name="gcircumflex" horiz-adv-x="615" unicode="ĝ"/><glyph d="M393 713q98 0 169-36.5t107-79.5l-89-92q-70 77-181 77-101 0-161.5-66t-60.5-166q0-105 62.5-168t159.5-63q64 0 107 18.5t61 36.5v86h-133v119h265v-277q-65-56-135-85.5t-171-29.5q-153 0-258 100.5t-105 262.5q0 153 102.5 258t260.5 105zM395 741q-71 0-111 39.5t-40 103.5h99q0-62 52-62 53 0 53 62h99q0-64-40-103.5t-112-39.5z" glyph-name="Gbreve" horiz-adv-x="747" unicode="Ğ"/><glyph d="M92-144l42 106q68-36 149-36 144 0 144 104v24q-8-11-24-24.5t-52-28-77-14.5q-113 0-181.5 76t-68.5 198q0 121 71.5 198t183.5 77q58 0 98.5-22.5t57.5-45.5v55h130v-457q0-137-77-197.5t-204-60.5q-105 0-192 48zM431 262q0 67-37.5 109.5t-97.5 42.5q-59 0-96-42t-37-110 37.5-110.5 96.5-42.5q60 0 97 42t37 111zM306 581q-71 0-111 39.5t-40 103.5h99q0-62 52-62 53 0 53 62h99q0-64-40-103.5t-112-39.5z" glyph-name="gbreve" horiz-adv-x="615" unicode="ğ"/><glyph d="M393 713q98 0 169-36.5t107-79.5l-89-92q-70 77-181 77-101 0-161.5-66t-60.5-166q0-105 62.5-168t159.5-63q64 0 107 18.5t61 36.5v86h-133v119h265v-277q-65-56-135-85.5t-171-29.5q-153 0-258 100.5t-105 262.5q0 153 102.5 258t260.5 105zM319 809q0 34 23 56.5t57 22.5q35 0 58-22.5t23-56.5-23-56.5-58-22.5q-34 0-57 22.5t-23 56.5z" glyph-name="Gdotaccent" horiz-adv-x="747" unicode="Ġ"/><glyph d="M92-144l42 106q68-36 149-36 144 0 144 104v24q-8-11-24-24.5t-52-28-77-14.5q-113 0-181.5 76t-68.5 198q0 121 71.5 198t183.5 77q58 0 98.5-22.5t57.5-45.5v55h130v-457q0-137-77-197.5t-204-60.5q-105 0-192 48zM431 262q0 67-37.5 109.5t-97.5 42.5q-59 0-96-42t-37-110 37.5-110.5 96.5-42.5q60 0 97 42t37 111zM227 649q0 34 23 56.5t57 22.5q35 0 58-22.5t23-56.5-23-56.5-58-22.5q-34 0-57 22.5t-23 56.5z" glyph-name="gdotaccent" horiz-adv-x="615" unicode="ġ"/><glyph d="M393 713q98 0 169-36.5t107-79.5l-89-92q-70 77-181 77-101 0-161.5-66t-60.5-166q0-105 62.5-168t159.5-63q64 0 107 18.5t61 36.5v86h-133v119h265v-277q-65-56-135-85.5t-171-29.5q-153 0-258 100.5t-105 262.5q0 153 102.5 258t260.5 105zM339-240q40 31 49 65-28 6-43.5 26.5t-15.5 45.5q0 31 22 52.5t53 21.5q34 0 56-23.5t22-62.5q0-53-26-100t-69-76z" glyph-name="Gcommaaccent" horiz-adv-x="747" unicode="Ģ"/><glyph d="M92-144l42 106q68-36 149-36 144 0 144 104v24q-8-11-24-24.5t-52-28-77-14.5q-113 0-181.5 76t-68.5 198q0 121 71.5 198t183.5 77q58 0 98.5-22.5t57.5-45.5v55h130v-457q0-137-77-197.5t-204-60.5q-105 0-192 48zM431 262q0 67-37.5 109.5t-97.5 42.5q-59 0-96-42t-37-110 37.5-110.5 96.5-42.5q60 0 97 42t37 111zM369 782q-40-31-49-65 28-6 43.5-26.5t15.5-45.5q0-31-22-52.5t-53-21.5q-34 0-56 23.5t-22 62.5q0 53 26 100t69 76z" glyph-name="gcommaaccent" horiz-adv-x="615" unicode="ģ"/><glyph d="M67 0v700h141v-284h291v284h141v-700h-141v289h-291v-289h-141zM407 739l-49 71-49-71h-117l95 140h142l95-140h-117z" glyph-name="Hcircumflex" horiz-adv-x="707" unicode="Ĥ"/><glyph d="M330 536q181 0 181-234v-302h-137v318q0 42-25.5 68t-61.5 26q-43 0-69-27.5t-26-70.5v-314h-138v723h138v-261q19 31 55 52.5t83 21.5zM346 739l-49 71-49-71h-117l95 140h142l95-140h-117z" glyph-name="hcircumflex" horiz-adv-x="562" unicode="ĥ"/><glyph d="M67 0v511h-57v96h57v93h141v-93h291v93h141v-93h58v-96h-58v-511h-141v289h-291v-289h-141zM208 416h291v95h-291v-95z" glyph-name="Hbar" horiz-adv-x="707" unicode="Ħ"/><glyph d="M330 536q181 0 181-234v-302h-137v318q0 42-25.5 68t-61.5 26q-43 0-69-27.5t-26-70.5v-314h-138v575h-51v88h51v60h138v-60h130v-88h-130v-113q19 31 55 52.5t83 21.5z" glyph-name="hbar" horiz-adv-x="562" unicode="ħ"/><glyph d="M67 0v700h141v-700h-141zM207 744q-29 0-69.5 18.5t-55.5 18.5q-32 0-32-38h-87q0 60 30.5 97t79.5 37q30 0 70-18.5t53-18.5q32 0 32 38h87q0-61-29.5-97.5t-78.5-36.5z" glyph-name="Itilde" horiz-adv-x="275" unicode="Ĩ"/><glyph d="M193 587q-29 0-69.5 18.5t-55.5 18.5q-32 0-32-38h-87q0 60 30.5 97t79.5 37q30 0 70-18.5t53-18.5q32 0 32 38h87q0-61-29.5-97.5t-78.5-36.5zM54 0v523h138v-523h-138z" glyph-name="itilde" horiz-adv-x="246" unicode="ĩ"/><glyph d="M67 0v700h141v-700h-141zM4 751v101h268v-101h-268z" glyph-name="Imacron" horiz-adv-x="275" unicode="Ī"/><glyph d="M-10 603v101h268v-101h-268zM54 0v523h138v-523h-138z" glyph-name="imacron" unicode="ī"/><glyph d="M67 0v700h141v-700h-141zM140 741q-71 0-111 39.5t-40 103.5h99q0-62 52-62 53 0 53 62h99q0-64-40-103.5t-112-39.5z" glyph-name="Ibreve" horiz-adv-x="275" unicode="Ĭ"/><glyph d="M126 581q-71 0-111 39.5t-40 103.5h99q0-62 52-62 53 0 53 62h99q0-64-40-103.5t-112-39.5zM54 0v523h138v-523h-138z" glyph-name="ibreve" horiz-adv-x="246" unicode="ĭ"/><glyph d="M67 0v700h141v-700q-55-23-55-64 0-19 16-29.5t36-10.5v-98q-14-4-35-4-131 0-131 98 0 38 24 66.5t53 41.5h-49z" glyph-name="Iogonek" horiz-adv-x="275" unicode="Į"/><glyph d="M54 0v523h138v-523q-55-23-55-64 0-19 16-29.5t36-10.5v-98q-14-4-35-4-131 0-131 98 0 38 24 66.5t53 41.5h-46zM42 649q0 34 23 56.5t57 22.5q35 0 58-22.5t23-56.5-23-56.5-58-22.5q-34 0-57 22.5t-23 56.5z" glyph-name="iogonek" unicode="į"/><glyph d="M67 0v700h141v-700h-141zM60 809q0 34 23 56.5t57 22.5q35 0 58-22.5t23-56.5-23-56.5-58-22.5q-34 0-57 22.5t-23 56.5z" glyph-name="Idotaccent" horiz-adv-x="275" unicode="İ"/><glyph d="M54 0v523h138v-523h-138z" glyph-name="dotlessi" unicode="ı"/><glyph d="M67 0v700h141v-700h-141zM296 4l16 125q48-6 58-6 71 0 71 76v501h141v-526q0-92-53.5-136t-140.5-44q-45 0-92 10z" glyph-name="IJ" horiz-adv-x="649" unicode="Ĳ"/><glyph d="M54 0v523h138v-523h-138zM42 649q0 34 23 56.5t57 22.5q35 0 58-22.5t23-56.5-23-56.5-58-22.5q-34 0-57 22.5t-23 56.5zM301-1v524h138v-530q0-184-200-184l-34 2v117q14-2 24-2 72 0 72 73zM289 649q0 34 23 56.5t57 22.5q35 0 58-22.5t23-56.5-23-56.5-58-22.5q-34 0-57 22.5t-23 56.5z" glyph-name="ij" horiz-adv-x="494" unicode="ĳ"/><glyph d="M20 4l16 125q48-6 58-6 71 0 71 76v501h141v-526q0-92-53.5-136t-140.5-44q-45 0-92 10zM274 739l-49 71-49-71h-117l95 140h142l95-140h-117z" glyph-name="Jcircumflex" horiz-adv-x="374" unicode="Ĵ"/><glyph d="M54-1v524h138v-530q0-184-200-184l-34 2v117q14-2 24-2 72 0 72 73zM174 584l-49 71-49-71h-117l95 140h142l95-140h-117z" glyph-name="jcircumflex" unicode="ĵ"/><glyph d="M67 0v700h141v-320l231 320h158l-252-335 260-365h-162l-235 340v-340h-141zM250-240q40 31 49 65-28 6-43.5 26.5t-15.5 45.5q0 31 22 52.5t53 21.5q34 0 56-23.5t22-62.5q0-53-26-100t-69-76z" glyph-name="Kcommaaccent" horiz-adv-x="615" unicode="Ķ"/><glyph d="M54 0v723h138v-420l168 220h155l-184-237 198-286h-162l-175 270v-270h-138zM204-240q40 31 49 65-28 6-43.5 26.5t-15.5 45.5q0 31 22 52.5t53 21.5q34 0 56-23.5t22-62.5q0-53-26-100t-69-76z" glyph-name="kcommaaccent" horiz-adv-x="532" unicode="ķ"/><glyph d="M54 0v523h138v-225l168 225h155l-184-242 198-281h-162l-175 265v-265h-138z" glyph-name="kgreenlandic" horiz-adv-x="532" unicode="ĸ"/><glyph d="M67 0v700h141v-573h228v-127h-369zM80 738l67 144h145l-97-144h-115z" glyph-name="Lacute" horiz-adv-x="455" unicode="Ĺ"/><glyph d="M54 0v723h138v-723h-138zM59 750l67 144h145l-97-144h-115z" glyph-name="lacute" unicode="ĺ"/><glyph d="M67 0v700h141v-573h228v-127h-369zM185-240q40 31 49 65-28 6-43.5 26.5t-15.5 45.5q0 31 22 52.5t53 21.5q34 0 56-23.5t22-62.5q0-53-26-100t-69-76z" glyph-name="Lcommaaccent" horiz-adv-x="455" unicode="Ļ"/><glyph d="M54 0v723h138v-723h-138zM56-240q40 31 49 65-28 6-43.5 26.5t-15.5 45.5q0 31 22 52.5t53 21.5q34 0 56-23.5t22-62.5q0-53-26-100t-69-76z" glyph-name="lcommaaccent" unicode="ļ"/><glyph d="M275 526l7 174h130l-46-174h-91zM67 0v700h141v-573h228v-127h-369z" glyph-name="Lcaron" horiz-adv-x="455" unicode="Ľ"/><glyph d="M224 549l7 174h130l-46-174h-91zM54 0v723h138v-723h-138z" glyph-name="lcaron" unicode="ľ"/><glyph d="M67 0v700h141v-573h228v-127h-369zM359 283q-36 0-60.5 24.5t-24.5 59.5q0 36 24.5 61t60.5 25 60.5-25 24.5-61q0-35-24.5-59.5t-60.5-24.5z" glyph-name="Ldot" horiz-adv-x="455" unicode="Ŀ"/><glyph d="M54 0v723h138v-723h-138zM314 269q-36 0-60.5 24.5t-24.5 59.5q0 36 24.5 61t60.5 25 60.5-25 24.5-61q0-35-24.5-59.5t-60.5-24.5z" glyph-name="ldot" horiz-adv-x="403" unicode="ŀ"/><glyph d="M11 191v132l56 32v345h141v-267l108 62v-134l-108-60v-175h228v-126h-369v224z" glyph-name="Lslash" horiz-adv-x="455" unicode="Ł"/><glyph d="M21 238v132l53 32v321h138v-240l61 37v-135l-61-37v-348h-138v270z" glyph-name="lslash" horiz-adv-x="294" unicode="ł"/><glyph d="M507 0l-302 476v-476h-139v700h143l299-480v480h139v-700h-140zM296 738l67 144h145l-97-144h-115z" glyph-name="Nacute" horiz-adv-x="713" unicode="Ń"/><glyph d="M329 536q181 0 181-234v-302h-138v318q0 42-25.5 68t-61.5 26q-42 0-67.5-27.5t-25.5-70.5v-314h-138v523h135v-61q19 30 56 52t84 22zM216 581l67 144h145l-97-144h-115z" glyph-name="nacute" horiz-adv-x="560" unicode="ń"/><glyph d="M507 0l-302 476v-476h-139v700h143l299-480v480h139v-700h-140zM289-240q40 31 49 65-28 6-43.5 26.5t-15.5 45.5q0 31 22 52.5t53 21.5q34 0 56-23.5t22-62.5q0-53-26-100t-69-76z" glyph-name="Ncommaaccent" horiz-adv-x="713" unicode="Ņ"/><glyph d="M329 536q181 0 181-234v-302h-138v318q0 42-25.5 68t-61.5 26q-42 0-67.5-27.5t-25.5-70.5v-314h-138v523h135v-61q19 30 56 52t84 22zM213-240q40 31 49 65-28 6-43.5 26.5t-15.5 45.5q0 31 22 52.5t53 21.5q34 0 56-23.5t22-62.5q0-53-26-100t-69-76z" glyph-name="ncommaaccent" horiz-adv-x="560" unicode="ņ"/><glyph d="M507 0l-302 476v-476h-139v700h143l299-480v480h139v-700h-140zM362 808l49 71h117l-95-140h-142l-95 140h117z" glyph-name="Ncaron" horiz-adv-x="713" unicode="Ň"/><glyph d="M329 536q181 0 181-234v-302h-138v318q0 42-25.5 68t-61.5 26q-42 0-67.5-27.5t-25.5-70.5v-314h-138v523h135v-61q19 30 56 52t84 22zM283 653l49 71h117l-95-140h-142l-95 140h117z" glyph-name="ncaron" horiz-adv-x="560" unicode="ň"/><glyph d="M404 536q181 0 181-234v-302h-138v318q0 42-25.5 68t-61.5 26q-42 0-67.5-27.5t-25.5-70.5v-314h-138v523h135v-61q19 30 56 52t84 22zM-23 517q40 31 49 65-28 6-43.5 26.5t-15.5 45.5q0 31 22 52.5t53 21.5q34 0 56-23.5t22-62.5q0-53-26-100t-69-76z" glyph-name="napostrophe" horiz-adv-x="636" unicode="ŉ"/><glyph d="M361-181l16 125q48-6 58-6 65 0 70 66l-300 472v-476h-139v700h143l299-480v480h139v-711q0-92-53.5-136t-140.5-44q-45 0-92 10z" glyph-name="Eng" horiz-adv-x="713" unicode="Ŋ"/><glyph d="M372-1v319q0 42-25.5 68t-61.5 26q-42 0-67.5-27.5t-25.5-70.5v-314h-138v523h135v-61q19 30 56 52t84 22q181 0 181-234v-309q0-184-200-184l-34 2v117q14-2 24-2 72 0 72 73z" glyph-name="eng" horiz-adv-x="560" unicode="ŋ"/><glyph d="M394-13q-160 0-262 103.5t-102 259.5q0 155 102.5 259t261.5 104 261.5-104 102.5-259q0-156-102-259.5t-262-103.5zM394 581q-94 0-155.5-66t-61.5-165q0-101 61.5-166t155.5-65 155.5 65 61.5 166q0 99-61.5 165t-155.5 66zM260 751v101h268v-101h-268z" glyph-name="Omacron" horiz-adv-x="788" unicode="Ō"/><glyph d="M25 260q0 119 80.5 197.5t200.5 78.5 201-79 81-197q0-119-79.5-196t-202.5-77q-122 0-201.5 77t-79.5 196zM163 260q0-66 40.5-108.5t102.5-42.5q63 0 103.5 42.5t40.5 108.5q0 67-41 110.5t-103 43.5-102.5-43.5-40.5-110.5zM173 603v101h268v-101h-268z" glyph-name="omacron" horiz-adv-x="613" unicode="ō"/><glyph d="M394-13q-160 0-262 103.5t-102 259.5q0 155 102.5 259t261.5 104 261.5-104 102.5-259q0-156-102-259.5t-262-103.5zM394 581q-94 0-155.5-66t-61.5-165q0-101 61.5-166t155.5-65 155.5 65 61.5 166q0 99-61.5 165t-155.5 66zM394 741q-71 0-111 39.5t-40 103.5h99q0-62 52-62 53 0 53 62h99q0-64-40-103.5t-112-39.5z" glyph-name="Obreve" horiz-adv-x="788" unicode="Ŏ"/><glyph d="M25 260q0 119 80.5 197.5t200.5 78.5 201-79 81-197q0-119-79.5-196t-202.5-77q-122 0-201.5 77t-79.5 196zM163 260q0-66 40.5-108.5t102.5-42.5q63 0 103.5 42.5t40.5 108.5q0 67-41 110.5t-103 43.5-102.5-43.5-40.5-110.5zM303 581q-71 0-111 39.5t-40 103.5h99q0-62 52-62 53 0 53 62h99q0-64-40-103.5t-112-39.5z" glyph-name="obreve" horiz-adv-x="613" unicode="ŏ"/><glyph d="M394-13q-160 0-262 103.5t-102 259.5q0 155 102.5 259t261.5 104 261.5-104 102.5-259q0-156-102-259.5t-262-103.5zM394 581q-94 0-155.5-66t-61.5-165q0-101 61.5-166t155.5-65 155.5 65 61.5 166q0 99-61.5 165t-155.5 66zM415 738l68 144h132l-96-144h-104zM241 738l67 144h133l-97-144h-103z" glyph-name="Ohungarumlaut" horiz-adv-x="788" unicode="Ő"/><glyph d="M25 260q0 119 80.5 197.5t200.5 78.5 201-79 81-197q0-119-79.5-196t-202.5-77q-122 0-201.5 77t-79.5 196zM163 260q0-66 40.5-108.5t102.5-42.5q63 0 103.5 42.5t40.5 108.5q0 67-41 110.5t-103 43.5-102.5-43.5-40.5-110.5zM342 581l68 144h132l-96-144h-104zM168 581l67 144h133l-97-144h-103z" glyph-name="ohungarumlaut" horiz-adv-x="613" unicode="ő"/><glyph d="M394-13q-160 0-262 103.5t-102 259.5q0 155 102.5 259t261.5 104q50 0 102-13h476v-127h-288q52-64 68-156h189v-125h-188q-12-93-69-166h297v-126h-485q-52-13-102-13zM394 581q-94 0-155.5-66t-61.5-165q0-101 61.5-166t155.5-65 155.5 65 61.5 166q0 99-61.5 165t-155.5 66z" glyph-name="OE" horiz-adv-x="1027" unicode="Œ"/><glyph d="M25 260q0 119 80 197.5t200 78.5q132 0 209-91 69 91 187 91 121 0 188-74.5t67-204.5q0-20-1-30h-369q2-53 40-86.5t97-33.5q83 0 127 64l91-69q-22-40-78.5-77.5t-142.5-37.5q-134 0-206 91-78-91-209-91-122 0-201 77t-79 196zM163 260q0-66 40-108.5t102-42.5 103.5 43 41.5 110q0 66-41 109t-104 43q-62 0-102-43t-40-111zM591 317h224q-2 48-33 77t-79 29-78-30-34-76z" glyph-name="oe" horiz-adv-x="979" unicode="œ"/><glyph d="M67 0v700h211q111 0 174-59t63-149q0-62-28.5-110t-77.5-75l166-307h-156l-136 274h-75v-274h-141zM208 393h66q41 0 68.5 25t27.5 69q0 42-27.5 66.5t-75.5 24.5h-59v-185zM198 738l67 144h145l-97-144h-115z" glyph-name="Racute" horiz-adv-x="585" unicode="Ŕ"/><glyph d="M333 536v-140q-141 0-141-168v-228h-138v523h135v-76q18 40 56 64.5t88 24.5zM114 581l67 144h145l-97-144h-115z" glyph-name="racute" horiz-adv-x="360" unicode="ŕ"/><glyph d="M67 0v700h211q111 0 174-59t63-149q0-62-28.5-110t-77.5-75l166-307h-156l-136 274h-75v-274h-141zM208 393h66q41 0 68.5 25t27.5 69q0 42-27.5 66.5t-75.5 24.5h-59v-185zM227-240q40 31 49 65-28 6-43.5 26.5t-15.5 45.5q0 31 22 52.5t53 21.5q34 0 56-23.5t22-62.5q0-53-26-100t-69-76z" glyph-name="Rcommaaccent" horiz-adv-x="585" unicode="Ŗ"/><glyph d="M333 536v-140q-141 0-141-168v-228h-138v523h135v-76q18 40 56 64.5t88 24.5zM82-240q40 31 49 65-28 6-43.5 26.5t-15.5 45.5q0 31 22 52.5t53 21.5q34 0 56-23.5t22-62.5q0-53-26-100t-69-76z" glyph-name="rcommaaccent" horiz-adv-x="360" unicode="ŗ"/><glyph d="M67 0v700h211q111 0 174-59t63-149q0-62-28.5-110t-77.5-75l166-307h-156l-136 274h-75v-274h-141zM208 393h66q41 0 68.5 25t27.5 69q0 42-27.5 66.5t-75.5 24.5h-59v-185zM268 808l49 71h117l-95-140h-142l-95 140h117z" glyph-name="Rcaron" horiz-adv-x="585" unicode="Ř"/><glyph d="M333 536v-140q-141 0-141-168v-228h-138v523h135v-76q18 40 56 64.5t88 24.5zM181 653l49 71h117l-95-140h-142l-95 140h117z" glyph-name="rcaron" horiz-adv-x="360" unicode="ř"/><glyph d="M263 713q50 0 90.5-16t65-42 38.5-49 22-46l-117-53q-35 76-102 76-35 0-55.5-19t-20.5-48q0-31 31.5-55.5t76-44 89-44 76-68.5 31.5-104q0-94-63-153.5t-171-59.5q-53 0-96 16.5t-69.5 43.5-42 51.5-24.5 50.5l119 58q37-89 121-89 39 0 61 19t22 53q0 32-31 57t-75.5 45-89 45-75.5 70-31 107q0 89 60 144t160 55zM189 738l67 144h145l-97-144h-115z" glyph-name="Sacute" horiz-adv-x="521" unicode="Ś"/><glyph d="M214-13q-71 0-120.5 28.5t-74.5 68.5l81 72q49-57 120-57 30 0 47 12.5t17 34.5q0 21-25.5 36.5t-62 28-72.5 30-61.5 53-25.5 87.5q0 71 54 113t136 42q122 0 179-93l-91-68q-40 50-94 50-24 0-39-11.5t-15-30.5q0-22 25.5-37t62-26.5 73-28 62-51.5 25.5-87q0-75-57-120.5t-144-45.5zM148 581l67 144h145l-97-144h-115z" glyph-name="sacute" horiz-adv-x="435" unicode="ś"/><glyph d="M263 713q50 0 90.5-16t65-42 38.5-49 22-46l-117-53q-35 76-102 76-35 0-55.5-19t-20.5-48q0-31 31.5-55.5t76-44 89-44 76-68.5 31.5-104q0-94-63-153.5t-171-59.5q-53 0-96 16.5t-69.5 43.5-42 51.5-24.5 50.5l119 58q37-89 121-89 39 0 61 19t22 53q0 32-31 57t-75.5 45-89 45-75.5 70-31 107q0 89 60 144t160 55zM313 739l-49 71-49-71h-117l95 140h142l95-140h-117z" glyph-name="Scircumflex" horiz-adv-x="521" unicode="Ŝ"/><glyph d="M214-13q-71 0-120.5 28.5t-74.5 68.5l81 72q49-57 120-57 30 0 47 12.5t17 34.5q0 21-25.5 36.5t-62 28-72.5 30-61.5 53-25.5 87.5q0 71 54 113t136 42q122 0 179-93l-91-68q-40 50-94 50-24 0-39-11.5t-15-30.5q0-22 25.5-37t62-26.5 73-28 62-51.5 25.5-87q0-75-57-120.5t-144-45.5zM278 584l-49 71-49-71h-117l95 140h142l95-140h-117z" glyph-name="scircumflex" horiz-adv-x="435" unicode="ŝ"/><glyph d="M240-233q-28 0-58 9l16 71q20-5 33-5 43 0 43 33 0 31-50 31l-17-2 12 85q-44 5-80.5 23t-59 43-36 48-21.5 46l119 58q37-89 121-89 39 0 61 19t22 53q0 32-31 57t-75.5 45-89 45-75.5 70-31 107q0 89 60 144t160 55q50 0 90.5-16t65-42 38.5-49 22-46l-117-53q-35 76-102 76-35 0-55.5-19t-20.5-48q0-31 31.5-55.5t76-44 89-44 76-68.5 31.5-104q0-85-52.5-143t-144.5-68l-4-28q36-7 56-32.5t20-59.5q0-47-35-74.5t-88-27.5z" glyph-name="Scedilla" horiz-adv-x="521" unicode="Ş"/><glyph d="M198-233q-28 0-58 9l16 71q20-5 33-5 43 0 43 33 0 31-50 31l-17-2 12 86q-57 7-97.5 33.5t-60.5 60.5l81 72q49-57 120-57 30 0 47 12.5t17 34.5q0 21-25.5 36.5t-62 28-72.5 30-61.5 53-25.5 87.5q0 71 54 113t136 42q122 0 179-93l-91-68q-40 50-94 50-24 0-39-11.5t-15-30.5q0-22 25.5-37t62-26.5 73-28 62-51.5 25.5-87q0-67-46-111t-120-52l-4-29q36-7 56-32.5t20-59.5q0-47-35-74.5t-88-27.5z" glyph-name="scedilla" horiz-adv-x="435" unicode="ş"/><glyph d="M263 713q50 0 90.5-16t65-42 38.5-49 22-46l-117-53q-35 76-102 76-35 0-55.5-19t-20.5-48q0-31 31.5-55.5t76-44 89-44 76-68.5 31.5-104q0-94-63-153.5t-171-59.5q-53 0-96 16.5t-69.5 43.5-42 51.5-24.5 50.5l119 58q37-89 121-89 39 0 61 19t22 53q0 32-31 57t-75.5 45-89 45-75.5 70-31 107q0 89 60 144t160 55zM259 808l49 71h117l-95-140h-142l-95 140h117z" glyph-name="Scaron" horiz-adv-x="521" unicode="Š"/><glyph d="M214-13q-71 0-120.5 28.5t-74.5 68.5l81 72q49-57 120-57 30 0 47 12.5t17 34.5q0 21-25.5 36.5t-62 28-72.5 30-61.5 53-25.5 87.5q0 71 54 113t136 42q122 0 179-93l-91-68q-40 50-94 50-24 0-39-11.5t-15-30.5q0-22 25.5-37t62-26.5 73-28 62-51.5 25.5-87q0-75-57-120.5t-144-45.5zM225 653l49 71h117l-95-140h-142l-95 140h117z" glyph-name="scaron" horiz-adv-x="435" unicode="š"/><glyph d="M185 0v573h-164v127h468v-127h-163v-573h-141zM185-240q40 31 49 65-28 6-43.5 26.5t-15.5 45.5q0 31 22 52.5t53 21.5q34 0 56-23.5t22-62.5q0-53-26-100t-69-76z" glyph-name="Tcommaaccent" horiz-adv-x="511" unicode="Ţ"/><glyph d="M185 0v573h-164v127h468v-127h-163v-573h-141zM185-240q40 31 49 65-28 6-43.5 26.5t-15.5 45.5q0 31 22 52.5t53 21.5q34 0 56-23.5t22-62.5q0-53-26-100t-69-76z" glyph-name="Tcommaaccent" horiz-adv-x="511" unicode="Ț"/><glyph d="M67 523v110h136v-110h98v-112h-98v-202q0-56 17.5-75t59.5-19q14 0 25 1v-118q-21-5-59-5-93 0-136.5 52.5t-43.5 159.5v206h-55v112h56zM116-240q40 31 49 65-28 6-43.5 26.5t-15.5 45.5q0 31 22 52.5t53 21.5q34 0 56-23.5t22-62.5q0-53-26-100t-69-76z" glyph-name="tcommaaccent" horiz-adv-x="333" unicode="ţ"/><glyph d="M67 523v110h136v-110h98v-112h-98v-202q0-56 17.5-75t59.5-19q14 0 25 1v-118q-21-5-59-5-93 0-136.5 52.5t-43.5 159.5v206h-55v112h56zM116-240q40 31 49 65-28 6-43.5 26.5t-15.5 45.5q0 31 22 52.5t53 21.5q34 0 56-23.5t22-62.5q0-53-26-100t-69-76z" glyph-name="tcommaaccent" horiz-adv-x="333" unicode="ț"/><glyph d="M185 0v573h-164v127h468v-127h-163v-573h-141zM255 808l49 71h117l-95-140h-142l-95 140h117z" glyph-name="Tcaron" horiz-adv-x="511" unicode="Ť"/><glyph d="M248 549l7 174h130l-46-174h-91zM67 523v110h136v-110h98v-112h-98v-202q0-56 17.5-75t59.5-19q14 0 25 1v-118q-21-5-59-5-93 0-136.5 52.5t-43.5 159.5v206h-55v112h56z" glyph-name="tcaron" horiz-adv-x="335" unicode="ť"/><glyph d="M71 310v103h116v160h-164v127h468v-127h-163v-160h115v-103h-115v-310h-141v310h-116z" glyph-name="Tbar" horiz-adv-x="511" unicode="Ŧ"/><glyph d="M67 523v110h136v-110h98v-112h-98v-80h90v-91h-90v-31q0-56 17.5-75t59.5-19q14 0 25 1v-118q-21-5-59-5-93 0-136.5 52.5t-43.5 159.5v35h-55v91h55v80h-55v112h56z" glyph-name="tbar" horiz-adv-x="333" unicode="ŧ"/><glyph d="M346-13q134 0 208 75t74 201v437h-141v-437q0-67-37-106t-104-39-104 39-37 106v437h-141v-437q0-126 74-201t208-75zM423 744q-29 0-69.5 18.5t-55.5 18.5q-32 0-32-38h-87q0 60 30.5 97t79.5 37q30 0 70-18.5t53-18.5q32 0 32 38h87q0-61-29.5-97.5t-78.5-36.5z" glyph-name="Utilde" horiz-adv-x="692" unicode="Ũ"/><glyph d="M231-13q-181 0-181 234v302h138v-318q0-42 25.5-68t61.5-26q42 0 67.5 27.5t25.5 70.5v314h138v-523h-135v61q-19-30-56-52t-84-22zM348 587q-29 0-69.5 18.5t-55.5 18.5q-32 0-32-38h-87q0 60 30.5 97t79.5 37q30 0 70-18.5t53-18.5q32 0 32 38h87q0-61-29.5-97.5t-78.5-36.5z" glyph-name="utilde" horiz-adv-x="556" unicode="ũ"/><glyph d="M346-13q134 0 208 75t74 201v437h-141v-437q0-67-37-106t-104-39-104 39-37 106v437h-141v-437q0-126 74-201t208-75zM214 751v101h268v-101h-268z" glyph-name="Umacron" horiz-adv-x="692" unicode="Ū"/><glyph d="M231-13q-181 0-181 234v302h138v-318q0-42 25.5-68t61.5-26q42 0 67.5 27.5t25.5 70.5v314h138v-523h-135v61q-19-30-56-52t-84-22zM148 603v101h268v-101h-268z" glyph-name="umacron" horiz-adv-x="556" unicode="ū"/><glyph d="M346-13q134 0 208 75t74 201v437h-141v-437q0-67-37-106t-104-39-104 39-37 106v437h-141v-437q0-126 74-201t208-75zM353 741q-71 0-111 39.5t-40 103.5h99q0-62 52-62 53 0 53 62h99q0-64-40-103.5t-112-39.5z" glyph-name="Ubreve" horiz-adv-x="692" unicode="Ŭ"/><glyph d="M231-13q-181 0-181 234v302h138v-318q0-42 25.5-68t61.5-26q42 0 67.5 27.5t25.5 70.5v314h138v-523h-135v61q-19-30-56-52t-84-22zM280 581q-71 0-111 39.5t-40 103.5h99q0-62 52-62 53 0 53 62h99q0-64-40-103.5t-112-39.5z" glyph-name="ubreve" horiz-adv-x="556" unicode="ŭ"/><glyph d="M346-13q134 0 208 75t74 201v437h-141v-437q0-67-37-106t-104-39-104 39-37 106v437h-141v-437q0-126 74-201t208-75zM348 731q-45 0-75.5 28t-30.5 71q0 44 30 71.5t76 27.5q47 0 77.5-27.5t30.5-70.5q0-44-30.5-72t-77.5-28zM349 791q17 0 27.5 11t10.5 29q0 17-10.5 27.5t-27.5 10.5-27.5-11-10.5-28 10.5-28 27.5-11z" glyph-name="Uring" horiz-adv-x="692" unicode="Ů"/><glyph d="M231-13q-181 0-181 234v302h138v-318q0-42 25.5-68t61.5-26q42 0 67.5 27.5t25.5 70.5v314h138v-523h-135v61q-19-30-56-52t-84-22zM281 564q-45 0-75.5 28t-30.5 71q0 44 30 71.5t76 27.5q47 0 77.5-27.5t30.5-70.5q0-44-30.5-72t-77.5-28zM282 624q17 0 27.5 11t10.5 29q0 17-10.5 27.5t-27.5 10.5-27.5-11-10.5-28 10.5-28 27.5-11z" glyph-name="uring" horiz-adv-x="556" unicode="ů"/><glyph d="M346-13q134 0 208 75t74 201v437h-141v-437q0-67-37-106t-104-39-104 39-37 106v437h-141v-437q0-126 74-201t208-75zM380 738l68 144h132l-96-144h-104zM206 738l67 144h133l-97-144h-103z" glyph-name="Uhungarumlaut" horiz-adv-x="695" unicode="Ű"/><glyph d="M231-13q-181 0-181 234v302h138v-318q0-42 25.5-68t61.5-26q42 0 67.5 27.5t25.5 70.5v314h138v-523h-135v61q-19-30-56-52t-84-22zM298 581l68 144h132l-96-144h-104zM124 581l67 144h133l-97-144h-103z" glyph-name="uhungarumlaut" horiz-adv-x="556" unicode="ű"/><glyph d="M315-108q0 57 56 96-17-1-25-1-134 0-208 75t-74 201v437h141v-437q0-67 37-106t104-39 104 39 37 106v437h141v-437q0-88-37-152.5t-107-96.5q-55-26-55-71 0-21 16.5-34t35.5-13v-98q-14-4-35-4-131 0-131 98z" glyph-name="Uogonek" horiz-adv-x="692" unicode="Ų"/><glyph d="M337-108q0 38 24 66.5t53 41.5h-43v61q-19-30-56-52t-84-22q-181 0-181 234v302h138v-318q0-42 25.5-68t61.5-26q42 0 67.5 27.5t25.5 70.5v314h138v-523q-55-23-55-64 0-19 16-29.5t36-10.5v-98q-14-4-35-4-131 0-131 98z" glyph-name="uogonek" horiz-adv-x="556" unicode="ų"/><glyph d="M620 0l-132 483-132-483h-159l-188 700h154l121-524 139 524h130l139-524 122 524h153l-187-700h-160zM538 739l-49 71-49-71h-117l95 140h142l95-140h-117z" glyph-name="Wcircumflex" horiz-adv-x="977" unicode="Ŵ"/><glyph d="M510 0l-96 335-97-335h-154l-156 523h150l92-371 100 371h130l99-371 93 371h150l-157-523h-154zM463 584l-49 71-49-71h-117l95 140h142l95-140h-117z" glyph-name="wcircumflex" horiz-adv-x="828" unicode="ŵ"/><glyph d="M222 0v320l-215 380h159l126-251 126 251h159l-215-380v-320h-140zM342 739l-49 71-49-71h-117l95 140h142l95-140h-117z" glyph-name="Ycircumflex" horiz-adv-x="584" unicode="Ŷ"/><glyph d="M266-179h-132l73 192-201 510h148l117-341 118 341h144zM322 584l-49 71-49-71h-117l95 140h142l95-140h-117z" glyph-name="ycircumflex" horiz-adv-x="540" unicode="ŷ"/><glyph d="M222 0v320l-215 380h159l126-251 126 251h159l-215-380v-320h-140zM197 750q-30 0-49 19.5t-19 48.5q0 28 19.5 48t48.5 20 48.5-20 19.5-48q0-29-19.5-48.5t-48.5-19.5zM389 750q-30 0-49 19.5t-19 48.5q0 28 19 48t49 20q29 0 48.5-20t19.5-48q0-29-19.5-48.5t-48.5-19.5z" glyph-name="Ydieresis" horiz-adv-x="584" unicode="Ÿ"/><glyph d="M32 0v92l344 483h-334v125h522v-92l-346-483h349v-125h-535zM225 738l67 144h145l-97-144h-115z" glyph-name="Zacute" horiz-adv-x="603" unicode="Ź"/><glyph d="M435 437l-236-322h239v-115h-410v85l236 323h-229v115h400v-86zM158 581l67 144h145l-97-144h-115z" glyph-name="zacute" horiz-adv-x="468" unicode="ź"/><glyph d="M32 0v92l344 483h-334v125h522v-92l-346-483h349v-125h-535zM221 809q0 34 23 56.5t57 22.5q35 0 58-22.5t23-56.5-23-56.5-58-22.5q-34 0-57 22.5t-23 56.5z" glyph-name="Zdotaccent" horiz-adv-x="603" unicode="Ż"/><glyph d="M435 437l-236-322h239v-115h-410v85l236 323h-229v115h400v-86zM158 649q0 34 23 56.5t57 22.5q35 0 58-22.5t23-56.5-23-56.5-58-22.5q-34 0-57 22.5t-23 56.5z" glyph-name="zdotaccent" horiz-adv-x="468" unicode="ż"/><glyph d="M32 0v92l344 483h-334v125h522v-92l-346-483h349v-125h-535zM300 808l49 71h117l-95-140h-142l-95 140h117z" glyph-name="Zcaron" horiz-adv-x="603" unicode="Ž"/><glyph d="M435 437l-236-322h239v-115h-410v85l236 323h-229v115h400v-86zM237 653l49 71h117l-95-140h-142l-95 140h117z" glyph-name="zcaron" horiz-adv-x="468" unicode="ž"/><glyph d="M285 323l-43-327q-25-188-206-188-30 0-63 6l16 115q18-4 35-4 43 0 60.5 22.5t25.5 83.5l39 292h-60v112h75l13 99q8 65 41.5 106.5t74 56 88.5 14.5q16 0 32-1.5t24-3.5l8-1-15-115q-20 4-36 4-71 0-82-74l-12-85h87v-112h-102z" glyph-name="florin" horiz-adv-x="476" unicode="ƒ"/><glyph d="M449 180h-238l-61-180h-142l239 676q-24 27-24 66 0 44 30 71.5t76 27.5q47 0 77.5-27.5t30.5-70.5q0-40-25-67l240-676h-142zM412 297l-82 252-81-252h163zM264 869l67 144h145l-97-144h-115zM330 703q17 0 27.5 11t10.5 29q0 17-10.5 27.5t-27.5 10.5-27.5-11-10.5-28 10.5-28 27.5-11z" glyph-name="Aringacute" horiz-adv-x="660" unicode="Ǻ"/><glyph d="M24 162q0 77 56 125t147 48q71 0 113-29v34q0 35-25 56t-70 21q-67 0-139-37l-52 94q38 26 93.5 44t112.5 18q118 0 168-54.5t50-150.5v-331h-122l-9 34q-44-47-127-47t-139.5 47.5-56.5 127.5zM162 166q0-32 26-52t65-20q40 0 65 19.5t25 52.5q0 34-25 53.5t-66 19.5q-40 0-65-20.5t-25-52.5zM262 557q-45 0-75.5 28t-30.5 71q0 44 30 71.5t76 27.5q47 0 77.5-27.5t30.5-70.5q0-44-30.5-72t-77.5-28zM263 617q17 0 27.5 11t10.5 29q0 17-10.5 27.5t-27.5 10.5-27.5-11-10.5-28 10.5-28 27.5-11zM195 774l67 144h145l-97-144h-115z" glyph-name="aringacute" horiz-adv-x="526" unicode="ǻ"/><glyph d="M8 0l365 700h430v-127h-218v-156h187v-125h-187v-166h227v-126h-368v180h-192l-91-180h-153zM439 563l-135-266h140v266h-5zM446 738l67 144h145l-97-144h-115z" glyph-name="AEacute" horiz-adv-x="857" unicode="Ǽ"/><glyph d="M162 166q0-32 26-52t65-20 64 19.5 25 52.5q0 34-25 53.5t-65 19.5-65-20.5-25-52.5zM482 317h224q-2 48-33 77t-79 29q-47 0-77-30t-35-76zM478 227q2-53 40-86.5t96-33.5q83 0 127 64l91-69q-22-40-78-77.5t-142-37.5q-137 0-208 87-56-87-184-87-83 0-139.5 47.5t-56.5 127.5q0 77 56 125t147 48q71 0 113-29v34q0 35-25 56t-70 21q-67 0-139-37-8 14-52 94 95 62 206 62 116 0 167-66 66 66 165 66 121 0 188-74.5t67-204.5q0-20-1-30h-368zM363 581l67 144h145l-97-144h-115z" glyph-name="aeacute" horiz-adv-x="870" unicode="ǽ"/><glyph d="M394-13q-107 0-191 48l-47-59-75 60 47 59q-98 101-98 255 0 155 102.5 259t261.5 104q102 0 187-47l46 58 76-60-46-57q101-103 101-257 0-156-102-259.5t-262-103.5zM611 350q0 82-44 143l-277-349q47-25 104-25 94 0 155.5 65t61.5 166zM394 581q-94 0-155.5-66t-61.5-165q0-81 41-141l276 348q-46 24-100 24zM323 738l67 144h145l-97-144h-115z" glyph-name="Oslashacute" horiz-adv-x="788" unicode="Ǿ"/><glyph d="M25 260q0 119 80.5 197.5t200.5 78.5q76 0 139-34l38 48 66-51-37-47q76-79 76-192 0-119-79.5-196t-202.5-77q-75 0-137 31l-39-50-65 51 37 47q-77 79-77 194zM163 260q0-50 23-87l180 228q-29 13-60 13-62 0-102.5-43.5t-40.5-110.5zM450 260q0 47-22 85l-178-226q24-10 56-10 63 0 103.5 42.5t40.5 108.5zM233 581l67 144h145l-97-144h-115z" glyph-name="oslashacute" horiz-adv-x="613" unicode="ǿ"/><glyph d="M263 713q50 0 90.5-16t65-42 38.5-49 22-46l-117-53q-35 76-102 76-35 0-55.5-19t-20.5-48q0-31 31.5-55.5t76-44 89-44 76-68.5 31.5-104q0-94-63-153.5t-171-59.5q-53 0-96 16.5t-69.5 43.5-42 51.5-24.5 50.5l119 58q37-89 121-89 39 0 61 19t22 53q0 32-31 57t-75.5 45-89 45-75.5 70-31 107q0 89 60 144t160 55zM188-240q40 31 49 65-28 6-43.5 26.5t-15.5 45.5q0 31 22 52.5t53 21.5q34 0 56-23.5t22-62.5q0-53-26-100t-69-76z" glyph-name="Scommaaccent" horiz-adv-x="521" unicode="Ș"/><glyph d="M214-13q-71 0-120.5 28.5t-74.5 68.5l81 72q49-57 120-57 30 0 47 12.5t17 34.5q0 21-25.5 36.5t-62 28-72.5 30-61.5 53-25.5 87.5q0 71 54 113t136 42q122 0 179-93l-91-68q-40 50-94 50-24 0-39-11.5t-15-30.5q0-22 25.5-37t62-26.5 73-28 62-51.5 25.5-87q0-75-57-120.5t-144-45.5zM154-240q40 31 49 65-28 6-43.5 26.5t-15.5 45.5q0 31 22 52.5t53 21.5q34 0 56-23.5t22-62.5q0-53-26-100t-69-76z" glyph-name="scommaaccent" horiz-adv-x="435" unicode="ș"/><glyph d="M54-1v524h138v-530q0-184-200-184l-34 2v117q14-2 24-2 72 0 72 73z" glyph-name="dotlessj" unicode="ȷ"/><glyph d="M271 584l-49 71-49-71h-117l95 140h142l95-140h-117z" glyph-name="circumflex" horiz-adv-x="445" unicode="ˆ"/><glyph d="M222 653l49 71h117l-95-140h-142l-95 140h117z" glyph-name="caron" horiz-adv-x="445" unicode="ˇ"/><glyph d="M221 581q-71 0-111 39.5t-40 103.5h99q0-62 52-62 53 0 53 62h99q0-64-40-103.5t-112-39.5z" glyph-name="breve" horiz-adv-x="445" unicode="˘"/><glyph d="M142 649q0 34 23 56.5t57 22.5q35 0 58-22.5t23-56.5-23-56.5-58-22.5q-34 0-57 22.5t-23 56.5z" glyph-name="dotaccent" horiz-adv-x="445" unicode="˙"/><glyph d="M221 564q-45 0-75.5 28t-30.5 71q0 44 30 71.5t76 27.5q47 0 77.5-27.5t30.5-70.5q0-44-30.5-72t-77.5-28zM222 624q17 0 27.5 11t10.5 29q0 17-10.5 27.5t-27.5 10.5-27.5-11-10.5-28 10.5-28 27.5-11z" glyph-name="ring" horiz-adv-x="445" unicode="˚"/><glyph d="M138-108q0 38 24 66.5t53 41.5h92q-55-23-55-64 0-19 16-29.5t36-10.5v-98q-14-4-35-4-131 0-131 98z" glyph-name="ogonek" horiz-adv-x="445" unicode="˛"/><glyph d="M290 587q-29 0-69.5 18.5t-55.5 18.5q-32 0-32-38h-87q0 60 30.5 97t79.5 37q30 0 70-18.5t53-18.5q32 0 32 38h87q0-61-29.5-97.5t-78.5-36.5z" glyph-name="tilde" horiz-adv-x="445" unicode="˜"/><glyph d="M219 581l68 144h132l-96-144h-104zM45 581l67 144h133l-97-144h-103z" glyph-name="hungarumlaut" horiz-adv-x="465" unicode="˝"/><glyph d="M620 0l-132 483-132-483h-159l-188 700h154l121-524 139 524h130l139-524 122 524h153l-187-700h-160zM468 882l67-144h-115l-97 144h145z" glyph-name="Wgrave" horiz-adv-x="975" unicode="Ẁ"/><glyph d="M510 0l-96 335-97-335h-154l-156 523h150l92-371 100 371h130l99-371 93 371h150l-157-523h-154zM401 725l67-144h-115l-97 144h145z" glyph-name="wgrave" horiz-adv-x="828" unicode="ẁ"/><glyph d="M620 0l-132 483-132-483h-159l-188 700h154l121-524 139 524h130l139-524 122 524h153l-187-700h-160zM426 738l67 144h145l-97-144h-115z" glyph-name="Wacute" horiz-adv-x="976" unicode="Ẃ"/><glyph d="M510 0l-96 335-97-335h-154l-156 523h150l92-371 100 371h130l99-371 93 371h150l-157-523h-154zM359 581l67 144h145l-97-144h-115z" glyph-name="wacute" horiz-adv-x="828" unicode="ẃ"/><glyph d="M620 0l-132 483-132-483h-159l-188 700h154l121-524 139 524h130l139-524 122 524h153l-187-700h-160zM393 744q-30 0-49 19.5t-19 48.5q0 28 19.5 48t48.5 20 48.5-20 19.5-48q0-29-19.5-48.5t-48.5-19.5zM585 744q-30 0-49 19.5t-19 48.5q0 28 19 48t49 20q29 0 48.5-20t19.5-48q0-29-19.5-48.5t-48.5-19.5z" glyph-name="Wdieresis" horiz-adv-x="976" unicode="Ẅ"/><glyph d="M510 0l-96 335-97-335h-154l-156 523h150l92-371 100 371h130l99-371 93 371h150l-157-523h-154zM317 585q-30 0-49 19.5t-19 48.5q0 28 19.5 48t48.5 20 48.5-20 19.5-48q0-29-19.5-48.5t-48.5-19.5zM509 585q-30 0-49 19.5t-19 48.5q0 28 19 48t49 20q29 0 48.5-20t19.5-48q0-29-19.5-48.5t-48.5-19.5z" glyph-name="wdieresis" horiz-adv-x="828" unicode="ẅ"/><glyph d="M222 0v320l-215 380h159l126-251 126 251h159l-215-380v-320h-140zM297 882l67-144h-115l-97 144h145z" glyph-name="Ygrave" horiz-adv-x="584" unicode="Ỳ"/><glyph d="M266-179h-132l73 192-201 510h148l117-341 118 341h144zM277 725l67-144h-115l-97 144h145z" glyph-name="ygrave" horiz-adv-x="540" unicode="ỳ"/><glyph d="M45 251v113h558v-113h-558z" glyph-name="endash" horiz-adv-x="648" unicode="–"/><glyph d="M45 251v113h827v-113h-827z" glyph-name="emdash" horiz-adv-x="918" unicode="—"/><glyph d="M191 672q-19-13-39-36t-23-45q32-7 50.5-30.5t18.5-52.5q0-35-24.5-60.5t-59.5-25.5q-38 0-63 24.5t-25 67.5q0 65 31.5 123.5t79.5 94.5z" glyph-name="quoteleft" horiz-adv-x="225" unicode="‘"/><glyph d="M33 482q19 13 39 36t23 45q-32 7-50.5 30.5t-18.5 52.5q0 35 24.5 60.5t59.5 25.5q38 0 63-24.5t25-67.5q0-65-31.5-123.5t-79.5-94.5z" glyph-name="quoteright" horiz-adv-x="225" unicode="’"/><glyph d="M44-93q19 13 39 36t23 45q-32 7-50.5 30.5t-18.5 52.5q0 35 24.5 60.5t59.5 25.5q38 0 63-24.5t25-67.5q0-65-31.5-123.5t-79.5-94.5z" glyph-name="quotesinglbase" horiz-adv-x="244" unicode="‚"/><glyph d="M191 672q-19-13-39-36t-23-45q32-7 50.5-30.5t18.5-52.5q0-35-24.5-60.5t-59.5-25.5q-38 0-63 24.5t-25 67.5q0 65 31.5 123.5t79.5 94.5zM391 672q-19-13-39-36t-23-45q32-7 50.5-30.5t18.5-52.5q0-35-24.5-60.5t-59.5-25.5q-38 0-63 24.5t-25 67.5q0 65 31.5 123.5t79.5 94.5z" glyph-name="quotedblleft" horiz-adv-x="425" unicode="“"/><glyph d="M233 482q19 13 39 36t23 45q-32 7-50.5 30.5t-18.5 52.5q0 35 24.5 60.5t59.5 25.5q38 0 63-24.5t25-67.5q0-65-31.5-123.5t-79.5-94.5zM33 482q19 13 39 36t23 45q-32 7-50.5 30.5t-18.5 52.5q0 35 24.5 60.5t59.5 25.5q38 0 63-24.5t25-67.5q0-65-31.5-123.5t-79.5-94.5z" glyph-name="quotedblright" horiz-adv-x="425" unicode="”"/><glyph d="M33-93q19 13 39 36t23 45q-32 7-50.5 30.5t-18.5 52.5q0 35 24.5 60.5t59.5 25.5q38 0 63-24.5t25-67.5q0-65-31.5-123.5t-79.5-94.5zM233-93q19 13 39 36t23 45q-32 7-50.5 30.5t-18.5 52.5q0 35 24.5 60.5t59.5 25.5q38 0 63-24.5t25-67.5q0-65-31.5-123.5t-79.5-94.5z" glyph-name="quotedblbase" horiz-adv-x="425" unicode="„"/><glyph d="M144 0v416h-117v120h117v164h135v-164h119v-120h-119v-416h-135z" glyph-name="dagger" horiz-adv-x="425" unicode="†"/><glyph d="M398 288v-119h-117v-169h-135v169h-119v119h119v122h-119v120h119v170h135v-170h117v-120h-117v-122h117z" glyph-name="daggerdbl" horiz-adv-x="424" unicode="‡"/><glyph d="M203 138q-74 0-123 50t-49 122 49 122 123 50 123-50 49-122-49-122-123-50z" glyph-name="uc-bullet" horiz-adv-x="406" unicode="•"/><glyph d="M70 0l530 700h134l-530-700h-134zM368 546q0-70-48.5-118.5t-121.5-48.5-121.5 48.5-48.5 118.5 48.5 118.5 121.5 48.5 121.5-48.5 48.5-118.5zM133 546q0-28 18-47.5t47-19.5 47 19.5 18 47.5-18 47.5-47 19.5-47-19.5-18-47.5zM775 152q0-70-48.5-118.5t-121.5-48.5-121.5 48.5-48.5 118.5 48.5 118.5 121.5 48.5 121.5-48.5 48.5-118.5zM540 152q0-28 18-47.5t47-19.5 47 19.5 18 47.5-18 47.5-47 19.5-47-19.5-18-47.5zM1163 152q0-70-48.5-118.5t-121.5-48.5-121.5 48.5-48.5 118.5 48.5 118.5 121.5 48.5 121.5-48.5 48.5-118.5zM928 152q0-28 18-47.5t47-19.5 47 19.5 18 47.5-18 47.5-47 19.5-47-19.5-18-47.5z" glyph-name="perthousand" horiz-adv-x="1191" unicode="‰"/><glyph d="M150 106l-122 187 122 188h123l-122-188 122-187h-123z" glyph-name="guilsinglleft" horiz-adv-x="302" unicode="‹"/><glyph d="M273 293l-122-187h-123l122 187-122 188h123z" glyph-name="guilsinglright" horiz-adv-x="302" unicode="›"/><glyph d="M102-41h-118l374 782h119z" glyph-name="fraction" horiz-adv-x="460" unicode="⁄"/><glyph d="M24 231v91h50q-2 8-2 29 0 14 2 32h-50v92h68q33 105 121.5 171.5t204.5 66.5q109 0 179-45l-58-115q-55 31-118 31-59 0-106-29.5t-69-79.5h221l-9-92h-237q-2-20-2-31 0-18 3-30h231l-9-91h-194q23-51 70-81t108-30q73 0 122 33l54-114q-22-20-70-36t-106-16q-126 0-215 67.5t-122 176.5h-67z" glyph-name="Euro" horiz-adv-x="645" unicode="€"/><glyph d="M820 530q0-35 23.5-60t61.5-25q37 0 61 25t24 60-23.5 61-61.5 26-61.5-26-23.5-61zM720 530q0 75 52.5 129t132.5 54 132.5-54 52.5-129q0-74-52.5-127.5t-132.5-53.5-132.5 53.5-52.5 127.5zM737 189v111h335v-111h-335zM507 0l-302 476v-476h-139v700h143l299-480v480h139v-700h-140z" glyph-name="numero" horiz-adv-x="1148" unicode="№"/><glyph d="M120 339v276h-88v85h269v-85h-87v-276h-94zM583 379h-86l-71 170v-210h-91v361h119l85-212 86 212h120v-361h-91v210z" glyph-name="trademark" horiz-adv-x="777" unicode="™"/><glyph d="M36 256v111h478v-111h-478z" glyph-name="minus" horiz-adv-x="550" unicode="−"/><glyph d="M79-240q40 31 49 65-28 6-43.5 26.5t-15.5 45.5q0 31 22 52.5t53 21.5q34 0 56-23.5t22-62.5q0-53-26-100t-69-76z" glyph-name="commaaccent" horiz-adv-x="292" unicode=""/><glyph d="M45 289v124h278v-124h-278z" glyph-name="hyphen.caps" horiz-adv-x="369"/><glyph d="M45 297v113h558v-113h-558z" glyph-name="endash.caps" horiz-adv-x="648"/><glyph d="M45 297v113h827v-113h-827z" glyph-name="emdash.caps" horiz-adv-x="918"/><glyph d="M150 170l-122 187 122 188h123l-122-188 122-187h-123zM338 170l-122 187 122 188h123l-122-188 122-187h-123z" glyph-name="guillemotleft.caps" horiz-adv-x="490"/><glyph d="M461 357l-122-187h-123l122 187-122 188h123zM273 357l-122-187h-123l122 187-122 188h123z" glyph-name="guillemotright.caps" horiz-adv-x="490"/><glyph d="M150 170l-122 187 122 188h123l-122-188 122-187h-123z" glyph-name="guilsinglleft.caps" horiz-adv-x="302"/><glyph d="M273 357l-122-187h-123l122 187-122 188h123z" glyph-name="guilsinglright.caps" horiz-adv-x="302"/><glyph d="M182 628v-558q0-85 86-85v-119q-223 0-223 211v543q0 212 223 212v-119q-86 0-86-85z" glyph-name="parenleft.caps" horiz-adv-x="332"/><glyph d="M150 70v558q0 85-86 85v119q223 0 223-212v-543q0-211-223-211v119q86 0 86 85z" glyph-name="parenright.caps" horiz-adv-x="333"/><glyph d="M45-134v966h223v-119h-86v-728h86v-119h-223z" glyph-name="bracketleft.caps" horiz-adv-x="332"/><glyph d="M287 832v-966h-223v119h86v728h-86v119h223z" glyph-name="bracketright.caps" horiz-adv-x="334"/><glyph d="M158 349q24-5 51.5-37.5t27.5-92.5v-149q0-85 87-85v-119q-223 0-223 212v108q0 99-73 99v129q73 0 73 99v107q0 212 223 212v-119q-87 0-87-85v-148q0-60-27-92.5t-52-38.5z" glyph-name="braceleft.caps" horiz-adv-x="388"/><glyph d="M76-205v1059h130v-1059h-130z" glyph-name="bar.caps" horiz-adv-x="282"/><glyph d="M230 349q-25 6-52 38.5t-27 92.5v148q0 85-87 85v119q223 0 223-212v-107q0-99 73-99v-129q-73 0-73-99v-108q0-212-223-212v119q87 0 87 85v149q0 60 27.5 92.5t51.5 37.5z" glyph-name="braceright.caps" horiz-adv-x="388"/><glyph d="M15-81l301 858h121l-301-858h-121z" glyph-name="slash.caps" horiz-adv-x="452"/><glyph d="M136 777l301-858h-121l-301 858h121z" glyph-name="backslash.caps" horiz-adv-x="452"/><glyph d="M73 0l11 501h124l11-501h-146zM146 713q36 0 60.5-24.5t24.5-59.5q0-36-24.5-61t-60.5-25-60.5 25-24.5 61q0 35 24.5 59.5t60.5 24.5z" glyph-name="exclamdown.caps" horiz-adv-x="292"/><glyph d="M330 501v-49q0-37-16.5-69t-40-54.5-47-43-40-45.5-16.5-51q0-31 23-53t61-22q63 0 89 62l110-49q-19-54-68-97t-133-43q-97 0-160 54.5t-63 139.5q0 42 17 77t41.5 59 49.5 45.5 42 46.5 17 51v41h134zM263 713q36 0 60.5-24.5t24.5-59.5q0-36-24.5-61t-60.5-25-60.5 25-24.5 61q0 35 24.5 59.5t60.5 24.5z" glyph-name="questiondown.caps" horiz-adv-x="482"/><glyph d="M124 270q-36 0-60.5 24.5t-24.5 59.5q0 36 24.5 61t60.5 25 60.5-25 24.5-61q0-35-24.5-59.5t-60.5-24.5z" glyph-name="periodcentered.caps" horiz-adv-x="249"/><glyph d="M203 182q-74 0-123 50t-49 122 49 122 123 50 123-50 49-122-49-122-123-50z" glyph-name="uc-bullet.caps" horiz-adv-x="406"/><glyph d="M532 350q0-184-56.5-273.5t-185.5-89.5q-128 0-184.5 89.5t-56.5 273.5 56.5 273.5 184.5 89.5q129 0 185.5-89.5t56.5-273.5zM192 350q0-123 19-177t79-54 79.5 54 19.5 177-19.5 177-79.5 54q-31 0-51-14.5t-30-46.5-13.5-70.5-3.5-99.5z" glyph-name="zero.tab" horiz-adv-x="581"/><glyph d="M77 0v123h178v438l-149-65-49 107 222 97h115v-577h130v-123h-447z" glyph-name="one.tab" horiz-adv-x="581"/><glyph d="M61 0v50q0 55 32 109.5t77 98 90.5 83 77.5 80.5 32 76q0 39-24 62.5t-66 23.5q-75 0-99-82l-123 36q7 30 22 58t40.5 56 68.5 45 97 17q102 0 165-57.5t63-152.5q0-52-27-101t-67-85.5-80.5-69-72.5-65-39-59.5h294v-123h-461z" glyph-name="two.tab" horiz-adv-x="581"/><glyph d="M287-13q-54 0-97 16t-69.5 42.5-42.5 54.5-23 59l121 38q26-81 108-81 44 0 71 26.5t27 69.5-30 69-85 26h-77v109l145 160h-253v124h414v-124l-147-154q71-7 123.5-61.5t52.5-142.5q0-101-67.5-166t-170.5-65z" glyph-name="three.tab" horiz-adv-x="581"/><glyph d="M24 163v101l287 436h164v-417h82v-120h-82v-163h-139v163h-312zM169 283h167v260z" glyph-name="four.tab" horiz-adv-x="581"/><glyph d="M275 338q-47 0-83-38l-117 20 15 380h395v-124h-270l-6-143q44 24 100 24 91 0 155-62t64-157q0-110-67-180.5t-171-70.5q-53 0-97 16t-71.5 42.5-44.5 55-25 58.5l122 38q10-37 38-59t71-22q45 0 74 31.5t29 79.5q0 45-28.5 78t-82.5 33z" glyph-name="five.tab" horiz-adv-x="581"/><glyph d="M297 119q46 0 70.5 29t24.5 82q0 49-25.5 79.5t-72.5 30.5q-59 0-101-55 0-38 3-63.5t13-51 32-38.5 56-13zM336 713q90 0 164-46l-55-114q-43 28-100 28-41 0-71-15.5t-44.5-42-21.5-51-8-51.5q52 45 125 45 93 0 149.5-61.5t56.5-170.5q0-111-64.5-179t-170.5-68q-135 0-190.5 83.5t-55.5 234.5q0 86 14 156t45.5 128.5 89 91 137.5 32.5z" glyph-name="six.tab" horiz-adv-x="581"/><glyph d="M56 700h468v-107l-235-593h-152l238 576h-319v124z" glyph-name="seven.tab" horiz-adv-x="581"/><glyph d="M289-13q-112 0-178.5 59.5t-66.5 159.5q0 59 28.5 102t67.5 64q-31 20-54 57t-23 85q0 87 62.5 143t164.5 56 164.5-55.5 62.5-143.5q0-49-23.5-85.5t-54.5-56.5q40-22 68.5-64.5t28.5-101.5q0-99-68-159t-179-60zM290 302q-46 0-74-26t-28-68q0-41 27-67t75-26q49 0 75.5 26t26.5 67q0 42-28 68t-74 26zM290 586q-41 0-64-22.5t-23-57.5q0-36 24-58.5t63-22.5q38 0 62.5 22.5t24.5 58.5q0 34-23 57t-64 23z" glyph-name="eight.tab" horiz-adv-x="581"/><glyph d="M287 581q-46 0-70.5-29t-24.5-82q0-49 25.5-79.5t72.5-30.5q59 0 101 55 0 38-3 63.5t-13 51-32 38.5-56 13zM248-13q-90 0-164 46l55 114q43-28 100-28 41 0 71 15.5t44.5 42 21.5 51 8 51.5q-52-45-125-45-93 0-149.5 61.5t-56.5 170.5q0 111 64.5 179t170.5 68q135 0 190.5-83.5t55.5-234.5q0-86-14-156t-45.5-128.5-89-91-137.5-32.5z" glyph-name="nine.tab" horiz-adv-x="588"/></font>
</defs>
</svg>
